<svg version="1.1" xmlns="http://www.w3.org/2000/svg" xmlns:xlink="http://www.w3.org/1999/xlink" width="1749" height="1209" viewBox="0 0 1749 1209"><defs/><g transform="matrix(1,0,0,1,0,0)"><g><g><g><path fill="none" stroke="#d3d3d3" paint-order="fill stroke markers" d=" M 0 0 L 1200 0" stroke-miterlimit="10" stroke-opacity="0.8" stroke-dasharray="5"/></g><g><path fill="none" stroke="#d3d3d3" paint-order="fill stroke markers" d=" M 0 0 L 0 800" stroke-miterlimit="10" stroke-opacity="0.8" stroke-dasharray="5"/></g></g><g id="_C02A85BF-138A-4381-8578-4621A520271B" bpmn2nodeid="_C02A85BF-138A-4381-8578-4621A520271B" transform="matrix(1,0,0,1,619,79)"><g><path fill="none" stroke="none"/></g><g transform="matrix(1,0,0,1,0,0)"><path fill="#ffffff" stroke="none" id="_C02A85BF-138A-4381-8578-4621A520271B?shapeType=BACKGROUND" paint-order="stroke fill markers" d=" M 2 0 L 152 0 L 152 0 A 2 2 0 0 1 154 2 L 154 100 L 154 100 A 2 2 0 0 1 152 102 L 2 102 L 2 102 A 2 2 0 0 1 0 100 L 0 2 L 0 2.0000000000000004 A 2 2 0 0 1 1.9999999999999996 0 Z"/></g><g transform="matrix(1,0,0,1,0,0)"><path fill="none" stroke="rgb(0,0,0)" id="_C02A85BF-138A-4381-8578-4621A520271B?shapeType=BORDER&amp;renderType=STROKE" paint-order="fill stroke markers" d=" M 2 0 L 152 0 L 152 0 A 2 2 0 0 1 154 2 L 154 100 L 154 100 A 2 2 0 0 1 152 102 L 2 102 L 2 102 A 2 2 0 0 1 0 100 L 0 2 L 0 2.0000000000000004 A 2 2 0 0 1 1.9999999999999996 0 Z" stroke-miterlimit="10" stroke-width="1.5" stroke-dasharray=""/></g><g><g transform="matrix(0.06,0,0,0.06,9.4,9.4)"><g transform="matrix(1,0,0,1,0,0)"><path fill="#393f44" stroke="none" id="_C02A85BF-138A-4381-8578-4621A520271Bundefined" paint-order="stroke fill markers" d=" M 0 0 M 128 344 L 128 296 C 128 293.7 127.2 291.8 125.8 290.2 C 124.39999999999999 288.59999999999997 122.39999999999999 288 120 288 L 40 288 C 37.7 288 35.8 288.8 34.2 290.2 C 32.60000000000001 291.59999999999997 32 293.7 32 296 L 32 344 C 32 346.3 32.8 348.2 34.2 349.8 C 35.60000000000001 351.40000000000003 37.6 352 40 352 L 120 352 C 122.3 352 124.2 351.2 125.8 349.8 C 127.39999999999999 348.40000000000003 128 346.3 128 344 Z M 0 0 M 128 248 L 128 200 C 128 197.7 127.2 195.8 125.8 194.2 C 124.39999999999999 192.59999999999997 122.39999999999999 192 120 192 L 40 192 C 37.7 192 35.8 192.8 34.2 194.2 C 32.60000000000001 195.59999999999997 32 197.7 32 200 L 32 248 C 32 250.3 32.8 252.2 34.2 253.8 C 35.60000000000001 255.40000000000003 37.6 256 40 256 L 120 256 C 122.3 256 124.2 255.2 125.8 253.8 C 127.39999999999999 252.40000000000003 128 250.3 128 248 Z M 0 0 M 376 352 C 378.3 352 380.2 351.2 381.8 349.8 C 383.40000000000003 348.40000000000003 384 346.40000000000003 384 344 L 384 296 C 384 293.7 383.2 291.8 381.8 290.2 C 380.40000000000003 288.59999999999997 378.40000000000003 288 376 288 L 168 288 C 165.7 288 163.8 288.8 162.2 290.2 C 160.59999999999997 291.59999999999997 160 293.59999999999997 160 296 L 160 344 C 160 346.3 160.8 348.2 162.2 349.8 C 163.59999999999997 351.40000000000003 165.6 352 168 352 L 376 352 Z M 0 0 M 128 152 L 128 104 C 128 101.7 127.2 99.8 125.8 98.2 C 124.39999999999999 96.60000000000001 122.3 96 120 96 L 40 96 C 37.7 96 35.8 96.8 34.2 98.2 C 32.60000000000001 99.60000000000001 32 101.7 32 104 L 32 152 C 32 154.3 32.8 156.2 34.2 157.8 C 35.60000000000001 159.40000000000003 37.6 160 40 160 L 120 160 C 122.3 160 124.2 159.2 125.8 157.8 C 127.39999999999999 156.40000000000003 128 154.3 128 152 Z M 0 0 M 376 256 C 378.3 256 380.2 255.2 381.8 253.8 C 383.40000000000003 252.40000000000003 384 250.4 384 248 L 384 200 C 384 197.7 383.2 195.8 381.8 194.2 C 380.40000000000003 192.59999999999997 378.40000000000003 192 376 192 L 168 192 C 165.7 192 163.8 192.8 162.2 194.2 C 160.59999999999997 195.59999999999997 160 197.6 160 200 L 160 248 C 160 250.3 160.8 252.2 162.2 253.8 C 163.59999999999997 255.40000000000003 165.6 256 168 256 L 376 256 Z M 0 0 M 376 160 C 378.3 160 380.2 159.2 381.8 157.8 C 383.40000000000003 156.40000000000003 384 154.4 384 152 L 384 104 C 384 101.7 383.2 99.8 381.8 98.2 C 380.40000000000003 96.60000000000001 378.3 96 376 96 L 168 96 C 165.7 96 163.8 96.8 162.2 98.2 C 160.59999999999997 99.60000000000001 160 101.60000000000001 160 104 L 160 152 C 160 154.3 160.8 156.2 162.2 157.8 C 163.59999999999997 159.40000000000003 165.6 160 168 160 L 376 160 Z M 0 0 M 416 72 L 416 344 C 416 355 412.1 364.4 404.2 372.2 C 396.29999999999995 380 387 384 376 384 L 40 384 C 29 384 19.6 380.1 11.8 372.2 C 4 364.29999999999995 0 355 0 344 L 0 72 C 0 61 3.9 51.6 11.8 43.8 C 19.700000000000003 35.99999999999999 29 32 40 32 L 376 32 C 387 32 396.4 35.9 404.2 43.8 C 412 51.699999999999996 416 61 416 72 Z"/></g></g></g><g transform="matrix(1,0,0,1,35.9921875,28.5)"><text fill="#000000" stroke="none" font-family="Open Sans" font-size="12pt" font-style="normal" font-weight="normal" text-decoration="normal" x="41.0078125" y="12" text-anchor="middle" dominant-baseline="alphabetic">  Validate   </text><text fill="#000000" stroke="none" font-family="Open Sans" font-size="12pt" font-style="normal" font-weight="normal" text-decoration="normal" x="41.0078125" y="27" text-anchor="middle" dominant-baseline="alphabetic"> Medicare  </text><text fill="#000000" stroke="none" font-family="Open Sans" font-size="12pt" font-style="normal" font-weight="normal" text-decoration="normal" x="41.0078125" y="42" text-anchor="middle" dominant-baseline="alphabetic">Enrollment</text></g></g><g id="_8531A172-E636-47B6-A8D9-ABD64DB41459" bpmn2nodeid="_8531A172-E636-47B6-A8D9-ABD64DB41459" transform="matrix(1,0,0,1,1086,766.1428833007812)"><g><path fill="none" stroke="none"/></g><g transform="matrix(1,0,0,1,0,0)"><path fill="#ffffff" stroke="none" id="_8531A172-E636-47B6-A8D9-ABD64DB41459?shapeType=BACKGROUND" paint-order="stroke fill markers" d=" M 2 0 L 152 0 L 152 0 A 2 2 0 0 1 154 2 L 154 100 L 154 100 A 2 2 0 0 1 152 102 L 2 102 L 2 102 A 2 2 0 0 1 0 100 L 0 2 L 0 2.0000000000000004 A 2 2 0 0 1 1.9999999999999996 0 Z"/></g><g transform="matrix(1,0,0,1,0,0)"><path fill="none" stroke="#000000" id="_8531A172-E636-47B6-A8D9-ABD64DB41459?shapeType=BORDER&amp;renderType=STROKE" paint-order="fill stroke markers" d=" M 2 0 L 152 0 L 152 0 A 2 2 0 0 1 154 2 L 154 100 L 154 100 A 2 2 0 0 1 152 102 L 2 102 L 2 102 A 2 2 0 0 1 0 100 L 0 2 L 0 2.0000000000000004 A 2 2 0 0 1 1.9999999999999996 0 Z" stroke-miterlimit="10" stroke-width="1.5" stroke-dasharray=""/></g><g><g transform="matrix(0.06,0,0,0.06,9.4,9.4)"><g transform="matrix(1,0,0,1,0,0)"><path fill="#393f44" stroke="none" id="_8531A172-E636-47B6-A8D9-ABD64DB41459undefined" paint-order="stroke fill markers" d=" M 0 0 M 128 344 L 128 296 C 128 293.7 127.2 291.8 125.8 290.2 C 124.39999999999999 288.59999999999997 122.39999999999999 288 120 288 L 40 288 C 37.7 288 35.8 288.8 34.2 290.2 C 32.60000000000001 291.59999999999997 32 293.7 32 296 L 32 344 C 32 346.3 32.8 348.2 34.2 349.8 C 35.60000000000001 351.40000000000003 37.6 352 40 352 L 120 352 C 122.3 352 124.2 351.2 125.8 349.8 C 127.39999999999999 348.40000000000003 128 346.3 128 344 Z M 0 0 M 128 248 L 128 200 C 128 197.7 127.2 195.8 125.8 194.2 C 124.39999999999999 192.59999999999997 122.39999999999999 192 120 192 L 40 192 C 37.7 192 35.8 192.8 34.2 194.2 C 32.60000000000001 195.59999999999997 32 197.7 32 200 L 32 248 C 32 250.3 32.8 252.2 34.2 253.8 C 35.60000000000001 255.40000000000003 37.6 256 40 256 L 120 256 C 122.3 256 124.2 255.2 125.8 253.8 C 127.39999999999999 252.40000000000003 128 250.3 128 248 Z M 0 0 M 376 352 C 378.3 352 380.2 351.2 381.8 349.8 C 383.40000000000003 348.40000000000003 384 346.40000000000003 384 344 L 384 296 C 384 293.7 383.2 291.8 381.8 290.2 C 380.40000000000003 288.59999999999997 378.40000000000003 288 376 288 L 168 288 C 165.7 288 163.8 288.8 162.2 290.2 C 160.59999999999997 291.59999999999997 160 293.59999999999997 160 296 L 160 344 C 160 346.3 160.8 348.2 162.2 349.8 C 163.59999999999997 351.40000000000003 165.6 352 168 352 L 376 352 Z M 0 0 M 128 152 L 128 104 C 128 101.7 127.2 99.8 125.8 98.2 C 124.39999999999999 96.60000000000001 122.3 96 120 96 L 40 96 C 37.7 96 35.8 96.8 34.2 98.2 C 32.60000000000001 99.60000000000001 32 101.7 32 104 L 32 152 C 32 154.3 32.8 156.2 34.2 157.8 C 35.60000000000001 159.40000000000003 37.6 160 40 160 L 120 160 C 122.3 160 124.2 159.2 125.8 157.8 C 127.39999999999999 156.40000000000003 128 154.3 128 152 Z M 0 0 M 376 256 C 378.3 256 380.2 255.2 381.8 253.8 C 383.40000000000003 252.40000000000003 384 250.4 384 248 L 384 200 C 384 197.7 383.2 195.8 381.8 194.2 C 380.40000000000003 192.59999999999997 378.40000000000003 192 376 192 L 168 192 C 165.7 192 163.8 192.8 162.2 194.2 C 160.59999999999997 195.59999999999997 160 197.6 160 200 L 160 248 C 160 250.3 160.8 252.2 162.2 253.8 C 163.59999999999997 255.40000000000003 165.6 256 168 256 L 376 256 Z M 0 0 M 376 160 C 378.3 160 380.2 159.2 381.8 157.8 C 383.40000000000003 156.40000000000003 384 154.4 384 152 L 384 104 C 384 101.7 383.2 99.8 381.8 98.2 C 380.40000000000003 96.60000000000001 378.3 96 376 96 L 168 96 C 165.7 96 163.8 96.8 162.2 98.2 C 160.59999999999997 99.60000000000001 160 101.60000000000001 160 104 L 160 152 C 160 154.3 160.8 156.2 162.2 157.8 C 163.59999999999997 159.40000000000003 165.6 160 168 160 L 376 160 Z M 0 0 M 416 72 L 416 344 C 416 355 412.1 364.4 404.2 372.2 C 396.29999999999995 380 387 384 376 384 L 40 384 C 29 384 19.6 380.1 11.8 372.2 C 4 364.29999999999995 0 355 0 344 L 0 72 C 0 61 3.9 51.6 11.8 43.8 C 19.700000000000003 35.99999999999999 29 32 40 32 L 376 32 C 387 32 396.4 35.9 404.2 43.8 C 412 51.699999999999996 416 61 416 72 Z"/></g></g></g><g transform="matrix(1,0,0,1,62.1328125,43.5)"><text fill="#000000" stroke="none" font-family="Open Sans" font-size="12pt" font-style="normal" font-weight="normal" text-decoration="normal" x="14.8671875" y="12" text-anchor="middle" dominant-baseline="alphabetic">Add</text></g></g><g id="_061EB256-4B8A-4C49-A48A-2C4DDB71CC56" bpmn2nodeid="_061EB256-4B8A-4C49-A48A-2C4DDB71CC56" transform="matrix(1,0,0,1,611,390)"><g><path fill="none" stroke="none"/></g><g transform="matrix(1,0,0,1,0,0)"><path fill="#ffffff" stroke="none" id="_061EB256-4B8A-4C49-A48A-2C4DDB71CC56?shapeType=BACKGROUND" paint-order="stroke fill markers" d=" M 2 0 L 152 0 L 152 0 A 2 2 0 0 1 154 2 L 154 100 L 154 100 A 2 2 0 0 1 152 102 L 2 102 L 2 102 A 2 2 0 0 1 0 100 L 0 2 L 0 2.0000000000000004 A 2 2 0 0 1 1.9999999999999996 0 Z"/></g><g transform="matrix(1,0,0,1,0,0)"><path fill="none" stroke="#000000" id="_061EB256-4B8A-4C49-A48A-2C4DDB71CC56?shapeType=BORDER&amp;renderType=STROKE" paint-order="fill stroke markers" d=" M 2 0 L 152 0 L 152 0 A 2 2 0 0 1 154 2 L 154 100 L 154 100 A 2 2 0 0 1 152 102 L 2 102 L 2 102 A 2 2 0 0 1 0 100 L 0 2 L 0 2.0000000000000004 A 2 2 0 0 1 1.9999999999999996 0 Z" stroke-miterlimit="10" stroke-width="1.5" stroke-dasharray=""/></g><g><g transform="matrix(0.06,0,0,0.06,9.4,9.4)"><g transform="matrix(1,0,0,1,0,0)"><path fill="#393f44" stroke="none" id="_061EB256-4B8A-4C49-A48A-2C4DDB71CC56undefined" paint-order="stroke fill markers" d=" M 0 0 M 128 344 L 128 296 C 128 293.7 127.2 291.8 125.8 290.2 C 124.39999999999999 288.59999999999997 122.39999999999999 288 120 288 L 40 288 C 37.7 288 35.8 288.8 34.2 290.2 C 32.60000000000001 291.59999999999997 32 293.7 32 296 L 32 344 C 32 346.3 32.8 348.2 34.2 349.8 C 35.60000000000001 351.40000000000003 37.6 352 40 352 L 120 352 C 122.3 352 124.2 351.2 125.8 349.8 C 127.39999999999999 348.40000000000003 128 346.3 128 344 Z M 0 0 M 128 248 L 128 200 C 128 197.7 127.2 195.8 125.8 194.2 C 124.39999999999999 192.59999999999997 122.39999999999999 192 120 192 L 40 192 C 37.7 192 35.8 192.8 34.2 194.2 C 32.60000000000001 195.59999999999997 32 197.7 32 200 L 32 248 C 32 250.3 32.8 252.2 34.2 253.8 C 35.60000000000001 255.40000000000003 37.6 256 40 256 L 120 256 C 122.3 256 124.2 255.2 125.8 253.8 C 127.39999999999999 252.40000000000003 128 250.3 128 248 Z M 0 0 M 376 352 C 378.3 352 380.2 351.2 381.8 349.8 C 383.40000000000003 348.40000000000003 384 346.40000000000003 384 344 L 384 296 C 384 293.7 383.2 291.8 381.8 290.2 C 380.40000000000003 288.59999999999997 378.40000000000003 288 376 288 L 168 288 C 165.7 288 163.8 288.8 162.2 290.2 C 160.59999999999997 291.59999999999997 160 293.59999999999997 160 296 L 160 344 C 160 346.3 160.8 348.2 162.2 349.8 C 163.59999999999997 351.40000000000003 165.6 352 168 352 L 376 352 Z M 0 0 M 128 152 L 128 104 C 128 101.7 127.2 99.8 125.8 98.2 C 124.39999999999999 96.60000000000001 122.3 96 120 96 L 40 96 C 37.7 96 35.8 96.8 34.2 98.2 C 32.60000000000001 99.60000000000001 32 101.7 32 104 L 32 152 C 32 154.3 32.8 156.2 34.2 157.8 C 35.60000000000001 159.40000000000003 37.6 160 40 160 L 120 160 C 122.3 160 124.2 159.2 125.8 157.8 C 127.39999999999999 156.40000000000003 128 154.3 128 152 Z M 0 0 M 376 256 C 378.3 256 380.2 255.2 381.8 253.8 C 383.40000000000003 252.40000000000003 384 250.4 384 248 L 384 200 C 384 197.7 383.2 195.8 381.8 194.2 C 380.40000000000003 192.59999999999997 378.40000000000003 192 376 192 L 168 192 C 165.7 192 163.8 192.8 162.2 194.2 C 160.59999999999997 195.59999999999997 160 197.6 160 200 L 160 248 C 160 250.3 160.8 252.2 162.2 253.8 C 163.59999999999997 255.40000000000003 165.6 256 168 256 L 376 256 Z M 0 0 M 376 160 C 378.3 160 380.2 159.2 381.8 157.8 C 383.40000000000003 156.40000000000003 384 154.4 384 152 L 384 104 C 384 101.7 383.2 99.8 381.8 98.2 C 380.40000000000003 96.60000000000001 378.3 96 376 96 L 168 96 C 165.7 96 163.8 96.8 162.2 98.2 C 160.59999999999997 99.60000000000001 160 101.60000000000001 160 104 L 160 152 C 160 154.3 160.8 156.2 162.2 157.8 C 163.59999999999997 159.40000000000003 165.6 160 168 160 L 376 160 Z M 0 0 M 416 72 L 416 344 C 416 355 412.1 364.4 404.2 372.2 C 396.29999999999995 380 387 384 376 384 L 40 384 C 29 384 19.6 380.1 11.8 372.2 C 4 364.29999999999995 0 355 0 344 L 0 72 C 0 61 3.9 51.6 11.8 43.8 C 19.700000000000003 35.99999999999999 29 32 40 32 L 376 32 C 387 32 396.4 35.9 404.2 43.8 C 412 51.699999999999996 416 61 416 72 Z"/></g></g></g><g transform="matrix(1,0,0,1,35,36)"><text fill="#000000" stroke="none" font-family="Open Sans" font-size="12pt" font-style="normal" font-weight="normal" text-decoration="normal" x="46.66796875" y="12" text-anchor="middle" dominant-baseline="alphabetic">Validate HIX </text><text fill="#000000" stroke="none" font-family="Open Sans" font-size="12pt" font-style="normal" font-weight="normal" text-decoration="normal" x="46.66796875" y="27" text-anchor="middle" dominant-baseline="alphabetic"> Enrollment  </text></g></g><g id="_15FD5770-6EF6-4823-AE6F-9D8E0461B29F" bpmn2nodeid="_15FD5770-6EF6-4823-AE6F-9D8E0461B29F" transform="matrix(1,0,0,1,486,102)"><g><path fill="none" stroke="none"/></g><g transform="matrix(0.125,0,0,0.125,0,0)"><g transform="matrix(1,0,0,1,0,0)"><path fill="#fef4ea" stroke="none" id="_15FD5770-6EF6-4823-AE6F-9D8E0461B29F?shapeType=BACKGROUND" paint-order="stroke fill markers" d=" M 0 0 M 224.4 4.3 C 216.4 4.3 208.4 7.3 202.3 13.399999999999999 L 13.5 202.2 C 1.3000000000000007 214.39999999999998 1.3000000000000007 234.2 13.5 246.39999999999998 L 202.2 435.09999999999997 C 208.29999999999998 441.2 216.39999999999998 444.2 224.29999999999998 444.2 C 232.2 444.2 240.29999999999998 441.2 246.39999999999998 435.09999999999997 L 435.09999999999997 246.39999999999998 C 447.29999999999995 234.2 447.29999999999995 214.39999999999998 435.09999999999997 202.2 L 246.5 13.4 C 240.4 7.3 232.4 4.3 224.4 4.3 L 224.4 4.3 Z"/></g><g><g transform="matrix(1,0,0,1,0,0)"><g transform="matrix(1,0,0,1,0,0)"><path fill="#ec7a08" stroke="none" id="_15FD5770-6EF6-4823-AE6F-9D8E0461B29F?shapeType=BORDER&amp;renderType=FILL" paint-order="stroke fill markers" d=" M 0 0 M 20.8 212.7 L 213.3 20.2 C 219.60000000000002 13.899999999999999 229.70000000000002 13.899999999999999 235.9 20.2 L 428.4 212.7 C 434.7 219 434.7 229.1 428.4 235.29999999999998 L 235.9 427.8 C 229.6 434.1 219.5 434.1 213.3 427.8 L 20.8 235.3 C 14.5 229.1 14.5 218.9 20.8 212.7 L 20.8 212.7 Z M 0 0 M 0 224 C 0 232.1 3.1 240.3 9.3 246.5 L 201.5 438.7 C 213.9 451.09999999999997 234.1 451.09999999999997 246.5 438.7 L 438.7 246.5 C 444.9 240.3 448 232.1 448 224 C 448 215.9 444.9 207.7 438.7 201.5 L 246.5 9.3 C 234.1 -3.0999999999999996 213.9 -3.0999999999999996 201.5 9.3 L 9.3 201.5 C 3.1 207.7 0 215.9 0 224 L 0 224 Z"/></g></g></g><g><g transform="matrix(1,0,0,1,0,0)"><g transform="matrix(1,0,0,1,0,0)"><path fill="#ec7a08" stroke="none" id="_15FD5770-6EF6-4823-AE6F-9D8E0461B29Fundefined" paint-order="stroke fill markers" d=" M 0 0 M 298.2 269.2 C 298.2 272.59999999999997 297.09999999999997 275.3 294.7 277.7 L 277.7 294.7 C 275.3 297.09999999999997 272.59999999999997 298.2 269.2 298.2 C 265.8 298.2 263.09999999999997 297.09999999999997 260.7 294.7 L 224 258 L 187.2 294.8 C 184.79999999999998 297.2 182.1 298.3 178.7 298.3 C 175.29999999999998 298.3 172.6 297.2 170.2 294.8 L 153.2 277.8 C 150.79999999999998 275.40000000000003 149.7 272.7 149.7 269.3 C 149.7 265.90000000000003 150.79999999999998 263.2 153.2 260.8 L 190 224 L 153.2 187.2 C 150.79999999999998 184.79999999999998 149.7 182 149.7 178.7 C 149.7 175.29999999999998 150.79999999999998 172.5 153.2 170.2 L 170.2 153.2 C 172.6 150.79999999999998 175.29999999999998 149.7 178.7 149.7 C 182.1 149.7 184.79999999999998 150.79999999999998 187.2 153.2 L 224 190 L 260.8 153.2 C 263.2 150.79999999999998 265.90000000000003 149.7 269.3 149.7 C 272.7 149.7 275.40000000000003 150.79999999999998 277.8 153.2 L 294.8 170.2 C 297.2 172.5 298.3 175.29999999999998 298.3 178.7 C 298.3 182 297.2 184.79999999999998 294.8 187.2 L 258 224 L 294.8 260.8 C 297.1 263.1 298.2 265.9 298.2 269.2 Z"/></g></g></g></g><g transform="matrix(1,0,0,1,28,61)"/></g><g id="_D4560452-6B56-443E-A020-273775D6F494" bpmn2nodeid="_D4560452-6B56-443E-A020-273775D6F494" transform="matrix(1,0,0,1,294,79)"><g><path fill="none" stroke="none"/></g><g transform="matrix(1,0,0,1,0,0)"><path fill="#ffffff" stroke="none" id="_D4560452-6B56-443E-A020-273775D6F494?shapeType=BACKGROUND" paint-order="stroke fill markers" d=" M 2 0 L 152 0 L 152 0 A 2 2 0 0 1 154 2 L 154 100 L 154 100 A 2 2 0 0 1 152 102 L 2 102 L 2 102 A 2 2 0 0 1 0 100 L 0 2 L 0 2.0000000000000004 A 2 2 0 0 1 1.9999999999999996 0 Z"/></g><g transform="matrix(1,0,0,1,0,0)"><path fill="none" stroke="#000000" id="_D4560452-6B56-443E-A020-273775D6F494?shapeType=BORDER&amp;renderType=STROKE" paint-order="fill stroke markers" d=" M 2 0 L 152 0 L 152 0 A 2 2 0 0 1 154 2 L 154 100 L 154 100 A 2 2 0 0 1 152 102 L 2 102 L 2 102 A 2 2 0 0 1 0 100 L 0 2 L 0 2.0000000000000004 A 2 2 0 0 1 1.9999999999999996 0 Z" stroke-miterlimit="10" stroke-width="1.5" stroke-dasharray=""/></g><g><g transform="matrix(0.06,0,0,0.06,9.4,9.4)"><g transform="matrix(1,0,0,1,0,0)"><path fill="#393f44" stroke="none" id="_D4560452-6B56-443E-A020-273775D6F494undefined" paint-order="stroke fill markers" d=" M 0 0 M 128 344 L 128 296 C 128 293.7 127.2 291.8 125.8 290.2 C 124.39999999999999 288.59999999999997 122.39999999999999 288 120 288 L 40 288 C 37.7 288 35.8 288.8 34.2 290.2 C 32.60000000000001 291.59999999999997 32 293.7 32 296 L 32 344 C 32 346.3 32.8 348.2 34.2 349.8 C 35.60000000000001 351.40000000000003 37.6 352 40 352 L 120 352 C 122.3 352 124.2 351.2 125.8 349.8 C 127.39999999999999 348.40000000000003 128 346.3 128 344 Z M 0 0 M 128 248 L 128 200 C 128 197.7 127.2 195.8 125.8 194.2 C 124.39999999999999 192.59999999999997 122.39999999999999 192 120 192 L 40 192 C 37.7 192 35.8 192.8 34.2 194.2 C 32.60000000000001 195.59999999999997 32 197.7 32 200 L 32 248 C 32 250.3 32.8 252.2 34.2 253.8 C 35.60000000000001 255.40000000000003 37.6 256 40 256 L 120 256 C 122.3 256 124.2 255.2 125.8 253.8 C 127.39999999999999 252.40000000000003 128 250.3 128 248 Z M 0 0 M 376 352 C 378.3 352 380.2 351.2 381.8 349.8 C 383.40000000000003 348.40000000000003 384 346.40000000000003 384 344 L 384 296 C 384 293.7 383.2 291.8 381.8 290.2 C 380.40000000000003 288.59999999999997 378.40000000000003 288 376 288 L 168 288 C 165.7 288 163.8 288.8 162.2 290.2 C 160.59999999999997 291.59999999999997 160 293.59999999999997 160 296 L 160 344 C 160 346.3 160.8 348.2 162.2 349.8 C 163.59999999999997 351.40000000000003 165.6 352 168 352 L 376 352 Z M 0 0 M 128 152 L 128 104 C 128 101.7 127.2 99.8 125.8 98.2 C 124.39999999999999 96.60000000000001 122.3 96 120 96 L 40 96 C 37.7 96 35.8 96.8 34.2 98.2 C 32.60000000000001 99.60000000000001 32 101.7 32 104 L 32 152 C 32 154.3 32.8 156.2 34.2 157.8 C 35.60000000000001 159.40000000000003 37.6 160 40 160 L 120 160 C 122.3 160 124.2 159.2 125.8 157.8 C 127.39999999999999 156.40000000000003 128 154.3 128 152 Z M 0 0 M 376 256 C 378.3 256 380.2 255.2 381.8 253.8 C 383.40000000000003 252.40000000000003 384 250.4 384 248 L 384 200 C 384 197.7 383.2 195.8 381.8 194.2 C 380.40000000000003 192.59999999999997 378.40000000000003 192 376 192 L 168 192 C 165.7 192 163.8 192.8 162.2 194.2 C 160.59999999999997 195.59999999999997 160 197.6 160 200 L 160 248 C 160 250.3 160.8 252.2 162.2 253.8 C 163.59999999999997 255.40000000000003 165.6 256 168 256 L 376 256 Z M 0 0 M 376 160 C 378.3 160 380.2 159.2 381.8 157.8 C 383.40000000000003 156.40000000000003 384 154.4 384 152 L 384 104 C 384 101.7 383.2 99.8 381.8 98.2 C 380.40000000000003 96.60000000000001 378.3 96 376 96 L 168 96 C 165.7 96 163.8 96.8 162.2 98.2 C 160.59999999999997 99.60000000000001 160 101.60000000000001 160 104 L 160 152 C 160 154.3 160.8 156.2 162.2 157.8 C 163.59999999999997 159.40000000000003 165.6 160 168 160 L 376 160 Z M 0 0 M 416 72 L 416 344 C 416 355 412.1 364.4 404.2 372.2 C 396.29999999999995 380 387 384 376 384 L 40 384 C 29 384 19.6 380.1 11.8 372.2 C 4 364.29999999999995 0 355 0 344 L 0 72 C 0 61 3.9 51.6 11.8 43.8 C 19.700000000000003 35.99999999999999 29 32 40 32 L 376 32 C 387 32 396.4 35.9 404.2 43.8 C 412 51.699999999999996 416 61 416 72 Z"/></g></g></g><g transform="matrix(1,0,0,1,39.9609375,36)"><text fill="#000000" stroke="none" font-family="Open Sans" font-size="12pt" font-style="normal" font-weight="normal" text-decoration="normal" x="37.0390625" y="12" text-anchor="middle" dominant-baseline="alphabetic">Common </text><text fill="#000000" stroke="none" font-family="Open Sans" font-size="12pt" font-style="normal" font-weight="normal" text-decoration="normal" x="37.0390625" y="27" text-anchor="middle" dominant-baseline="alphabetic">Validation</text></g></g><g id="_F3992AA2-69D2-47FE-9FAD-06F5425656F5" bpmn2nodeid="_F3992AA2-69D2-47FE-9FAD-06F5425656F5" transform="matrix(1,0,0,1,1319,925)"><g><path fill="none" stroke="none"/></g><g transform="matrix(0.125,0,0,0.125,0,0)"><g transform="matrix(1,0,0,1,0,0)"><path fill="#fef4ea" stroke="none" id="_F3992AA2-69D2-47FE-9FAD-06F5425656F5?shapeType=BACKGROUND" paint-order="stroke fill markers" d=" M 0 0 M 224.4 4.3 C 216.4 4.3 208.4 7.3 202.3 13.399999999999999 L 13.5 202.2 C 1.3000000000000007 214.39999999999998 1.3000000000000007 234.2 13.5 246.39999999999998 L 202.2 435.09999999999997 C 208.29999999999998 441.2 216.39999999999998 444.2 224.29999999999998 444.2 C 232.2 444.2 240.29999999999998 441.2 246.39999999999998 435.09999999999997 L 435.09999999999997 246.39999999999998 C 447.29999999999995 234.2 447.29999999999995 214.39999999999998 435.09999999999997 202.2 L 246.5 13.4 C 240.4 7.3 232.4 4.3 224.4 4.3 L 224.4 4.3 Z"/></g><g><g transform="matrix(1,0,0,1,0,0)"><g transform="matrix(1,0,0,1,0,0)"><path fill="#ec7a08" stroke="none" id="_F3992AA2-69D2-47FE-9FAD-06F5425656F5?shapeType=BORDER&amp;renderType=FILL" paint-order="stroke fill markers" d=" M 0 0 M 20.8 212.7 L 213.3 20.2 C 219.60000000000002 13.899999999999999 229.70000000000002 13.899999999999999 235.9 20.2 L 428.4 212.7 C 434.7 219 434.7 229.1 428.4 235.29999999999998 L 235.9 427.8 C 229.6 434.1 219.5 434.1 213.3 427.8 L 20.8 235.3 C 14.5 229.1 14.5 218.9 20.8 212.7 L 20.8 212.7 Z M 0 0 M 0 224 C 0 232.1 3.1 240.3 9.3 246.5 L 201.5 438.7 C 213.9 451.09999999999997 234.1 451.09999999999997 246.5 438.7 L 438.7 246.5 C 444.9 240.3 448 232.1 448 224 C 448 215.9 444.9 207.7 438.7 201.5 L 246.5 9.3 C 234.1 -3.0999999999999996 213.9 -3.0999999999999996 201.5 9.3 L 9.3 201.5 C 3.1 207.7 0 215.9 0 224 L 0 224 Z"/></g></g></g><g><g transform="matrix(1,0,0,1,0,0)"><g transform="matrix(1,0,0,1,0,0)"><path fill="#ec7a08" stroke="none" id="_F3992AA2-69D2-47FE-9FAD-06F5425656F5undefined" paint-order="stroke fill markers" d=" M 0 0 M 298.2 269.2 C 298.2 272.59999999999997 297.09999999999997 275.3 294.7 277.7 L 277.7 294.7 C 275.3 297.09999999999997 272.59999999999997 298.2 269.2 298.2 C 265.8 298.2 263.09999999999997 297.09999999999997 260.7 294.7 L 224 258 L 187.2 294.8 C 184.79999999999998 297.2 182.1 298.3 178.7 298.3 C 175.29999999999998 298.3 172.6 297.2 170.2 294.8 L 153.2 277.8 C 150.79999999999998 275.40000000000003 149.7 272.7 149.7 269.3 C 149.7 265.90000000000003 150.79999999999998 263.2 153.2 260.8 L 190 224 L 153.2 187.2 C 150.79999999999998 184.79999999999998 149.7 182 149.7 178.7 C 149.7 175.29999999999998 150.79999999999998 172.5 153.2 170.2 L 170.2 153.2 C 172.6 150.79999999999998 175.29999999999998 149.7 178.7 149.7 C 182.1 149.7 184.79999999999998 150.79999999999998 187.2 153.2 L 224 190 L 260.8 153.2 C 263.2 150.79999999999998 265.90000000000003 149.7 269.3 149.7 C 272.7 149.7 275.40000000000003 150.79999999999998 277.8 153.2 L 294.8 170.2 C 297.2 172.5 298.3 175.29999999999998 298.3 178.7 C 298.3 182 297.2 184.79999999999998 294.8 187.2 L 258 224 L 294.8 260.8 C 297.1 263.1 298.2 265.9 298.2 269.2 Z"/></g></g></g></g><g transform="matrix(1,0,0,1,28,61)"/></g><g id="_A1F31CCC-CA12-4117-A315-A6FBCEA5DF4F" bpmn2nodeid="_A1F31CCC-CA12-4117-A315-A6FBCEA5DF4F" transform="matrix(1,0,0,1,1086,1057)"><g><path fill="none" stroke="none"/></g><g transform="matrix(1,0,0,1,0,0)"><path fill="#ffffff" stroke="none" id="_A1F31CCC-CA12-4117-A315-A6FBCEA5DF4F?shapeType=BACKGROUND" paint-order="stroke fill markers" d=" M 2 0 L 152 0 L 152 0 A 2 2 0 0 1 154 2 L 154 100 L 154 100 A 2 2 0 0 1 152 102 L 2 102 L 2 102 A 2 2 0 0 1 0 100 L 0 2 L 0 2.0000000000000004 A 2 2 0 0 1 1.9999999999999996 0 Z"/></g><g transform="matrix(1,0,0,1,0,0)"><path fill="none" stroke="#000000" id="_A1F31CCC-CA12-4117-A315-A6FBCEA5DF4F?shapeType=BORDER&amp;renderType=STROKE" paint-order="fill stroke markers" d=" M 2 0 L 152 0 L 152 0 A 2 2 0 0 1 154 2 L 154 100 L 154 100 A 2 2 0 0 1 152 102 L 2 102 L 2 102 A 2 2 0 0 1 0 100 L 0 2 L 0 2.0000000000000004 A 2 2 0 0 1 1.9999999999999996 0 Z" stroke-miterlimit="10" stroke-width="1.5" stroke-dasharray=""/></g><g><g transform="matrix(0.06,0,0,0.06,9.4,9.4)"><g transform="matrix(1,0,0,1,0,0)"><path fill="#393f44" stroke="none" id="_A1F31CCC-CA12-4117-A315-A6FBCEA5DF4Fundefined" paint-order="stroke fill markers" d=" M 0 0 M 128 344 L 128 296 C 128 293.7 127.2 291.8 125.8 290.2 C 124.39999999999999 288.59999999999997 122.39999999999999 288 120 288 L 40 288 C 37.7 288 35.8 288.8 34.2 290.2 C 32.60000000000001 291.59999999999997 32 293.7 32 296 L 32 344 C 32 346.3 32.8 348.2 34.2 349.8 C 35.60000000000001 351.40000000000003 37.6 352 40 352 L 120 352 C 122.3 352 124.2 351.2 125.8 349.8 C 127.39999999999999 348.40000000000003 128 346.3 128 344 Z M 0 0 M 128 248 L 128 200 C 128 197.7 127.2 195.8 125.8 194.2 C 124.39999999999999 192.59999999999997 122.39999999999999 192 120 192 L 40 192 C 37.7 192 35.8 192.8 34.2 194.2 C 32.60000000000001 195.59999999999997 32 197.7 32 200 L 32 248 C 32 250.3 32.8 252.2 34.2 253.8 C 35.60000000000001 255.40000000000003 37.6 256 40 256 L 120 256 C 122.3 256 124.2 255.2 125.8 253.8 C 127.39999999999999 252.40000000000003 128 250.3 128 248 Z M 0 0 M 376 352 C 378.3 352 380.2 351.2 381.8 349.8 C 383.40000000000003 348.40000000000003 384 346.40000000000003 384 344 L 384 296 C 384 293.7 383.2 291.8 381.8 290.2 C 380.40000000000003 288.59999999999997 378.40000000000003 288 376 288 L 168 288 C 165.7 288 163.8 288.8 162.2 290.2 C 160.59999999999997 291.59999999999997 160 293.59999999999997 160 296 L 160 344 C 160 346.3 160.8 348.2 162.2 349.8 C 163.59999999999997 351.40000000000003 165.6 352 168 352 L 376 352 Z M 0 0 M 128 152 L 128 104 C 128 101.7 127.2 99.8 125.8 98.2 C 124.39999999999999 96.60000000000001 122.3 96 120 96 L 40 96 C 37.7 96 35.8 96.8 34.2 98.2 C 32.60000000000001 99.60000000000001 32 101.7 32 104 L 32 152 C 32 154.3 32.8 156.2 34.2 157.8 C 35.60000000000001 159.40000000000003 37.6 160 40 160 L 120 160 C 122.3 160 124.2 159.2 125.8 157.8 C 127.39999999999999 156.40000000000003 128 154.3 128 152 Z M 0 0 M 376 256 C 378.3 256 380.2 255.2 381.8 253.8 C 383.40000000000003 252.40000000000003 384 250.4 384 248 L 384 200 C 384 197.7 383.2 195.8 381.8 194.2 C 380.40000000000003 192.59999999999997 378.40000000000003 192 376 192 L 168 192 C 165.7 192 163.8 192.8 162.2 194.2 C 160.59999999999997 195.59999999999997 160 197.6 160 200 L 160 248 C 160 250.3 160.8 252.2 162.2 253.8 C 163.59999999999997 255.40000000000003 165.6 256 168 256 L 376 256 Z M 0 0 M 376 160 C 378.3 160 380.2 159.2 381.8 157.8 C 383.40000000000003 156.40000000000003 384 154.4 384 152 L 384 104 C 384 101.7 383.2 99.8 381.8 98.2 C 380.40000000000003 96.60000000000001 378.3 96 376 96 L 168 96 C 165.7 96 163.8 96.8 162.2 98.2 C 160.59999999999997 99.60000000000001 160 101.60000000000001 160 104 L 160 152 C 160 154.3 160.8 156.2 162.2 157.8 C 163.59999999999997 159.40000000000003 165.6 160 168 160 L 376 160 Z M 0 0 M 416 72 L 416 344 C 416 355 412.1 364.4 404.2 372.2 C 396.29999999999995 380 387 384 376 384 L 40 384 C 29 384 19.6 380.1 11.8 372.2 C 4 364.29999999999995 0 355 0 344 L 0 72 C 0 61 3.9 51.6 11.8 43.8 C 19.700000000000003 35.99999999999999 29 32 40 32 L 376 32 C 387 32 396.4 35.9 404.2 43.8 C 412 51.699999999999996 416 61 416 72 Z"/></g></g></g><g transform="matrix(1,0,0,1,35,43.5)"><text fill="#000000" stroke="none" font-family="Open Sans" font-size="12pt" font-style="normal" font-weight="normal" text-decoration="normal" x="54.43359375" y="12" text-anchor="middle" dominant-baseline="alphabetic">Reinstatement</text></g></g><g id="_8B4963E6-E428-4024-9733-92AEA76CC187" bpmn2nodeid="_8B4963E6-E428-4024-9733-92AEA76CC187" transform="matrix(1,0,0,1,1086,908.3333129882812)"><g><path fill="none" stroke="none"/></g><g transform="matrix(1,0,0,1,0,0)"><path fill="#ffffff" stroke="none" id="_8B4963E6-E428-4024-9733-92AEA76CC187?shapeType=BACKGROUND" paint-order="stroke fill markers" d=" M 2 0 L 152 0 L 152 0 A 2 2 0 0 1 154 2 L 154 100 L 154 100 A 2 2 0 0 1 152 102 L 2 102 L 2 102 A 2 2 0 0 1 0 100 L 0 2 L 0 2.0000000000000004 A 2 2 0 0 1 1.9999999999999996 0 Z"/></g><g transform="matrix(1,0,0,1,0,0)"><path fill="none" stroke="#000000" id="_8B4963E6-E428-4024-9733-92AEA76CC187?shapeType=BORDER&amp;renderType=STROKE" paint-order="fill stroke markers" d=" M 2 0 L 152 0 L 152 0 A 2 2 0 0 1 154 2 L 154 100 L 154 100 A 2 2 0 0 1 152 102 L 2 102 L 2 102 A 2 2 0 0 1 0 100 L 0 2 L 0 2.0000000000000004 A 2 2 0 0 1 1.9999999999999996 0 Z" stroke-miterlimit="10" stroke-width="1.5" stroke-dasharray=""/></g><g><g transform="matrix(0.06,0,0,0.06,9.4,9.4)"><g transform="matrix(1,0,0,1,0,0)"><path fill="#393f44" stroke="none" id="_8B4963E6-E428-4024-9733-92AEA76CC187undefined" paint-order="stroke fill markers" d=" M 0 0 M 128 344 L 128 296 C 128 293.7 127.2 291.8 125.8 290.2 C 124.39999999999999 288.59999999999997 122.39999999999999 288 120 288 L 40 288 C 37.7 288 35.8 288.8 34.2 290.2 C 32.60000000000001 291.59999999999997 32 293.7 32 296 L 32 344 C 32 346.3 32.8 348.2 34.2 349.8 C 35.60000000000001 351.40000000000003 37.6 352 40 352 L 120 352 C 122.3 352 124.2 351.2 125.8 349.8 C 127.39999999999999 348.40000000000003 128 346.3 128 344 Z M 0 0 M 128 248 L 128 200 C 128 197.7 127.2 195.8 125.8 194.2 C 124.39999999999999 192.59999999999997 122.39999999999999 192 120 192 L 40 192 C 37.7 192 35.8 192.8 34.2 194.2 C 32.60000000000001 195.59999999999997 32 197.7 32 200 L 32 248 C 32 250.3 32.8 252.2 34.2 253.8 C 35.60000000000001 255.40000000000003 37.6 256 40 256 L 120 256 C 122.3 256 124.2 255.2 125.8 253.8 C 127.39999999999999 252.40000000000003 128 250.3 128 248 Z M 0 0 M 376 352 C 378.3 352 380.2 351.2 381.8 349.8 C 383.40000000000003 348.40000000000003 384 346.40000000000003 384 344 L 384 296 C 384 293.7 383.2 291.8 381.8 290.2 C 380.40000000000003 288.59999999999997 378.40000000000003 288 376 288 L 168 288 C 165.7 288 163.8 288.8 162.2 290.2 C 160.59999999999997 291.59999999999997 160 293.59999999999997 160 296 L 160 344 C 160 346.3 160.8 348.2 162.2 349.8 C 163.59999999999997 351.40000000000003 165.6 352 168 352 L 376 352 Z M 0 0 M 128 152 L 128 104 C 128 101.7 127.2 99.8 125.8 98.2 C 124.39999999999999 96.60000000000001 122.3 96 120 96 L 40 96 C 37.7 96 35.8 96.8 34.2 98.2 C 32.60000000000001 99.60000000000001 32 101.7 32 104 L 32 152 C 32 154.3 32.8 156.2 34.2 157.8 C 35.60000000000001 159.40000000000003 37.6 160 40 160 L 120 160 C 122.3 160 124.2 159.2 125.8 157.8 C 127.39999999999999 156.40000000000003 128 154.3 128 152 Z M 0 0 M 376 256 C 378.3 256 380.2 255.2 381.8 253.8 C 383.40000000000003 252.40000000000003 384 250.4 384 248 L 384 200 C 384 197.7 383.2 195.8 381.8 194.2 C 380.40000000000003 192.59999999999997 378.40000000000003 192 376 192 L 168 192 C 165.7 192 163.8 192.8 162.2 194.2 C 160.59999999999997 195.59999999999997 160 197.6 160 200 L 160 248 C 160 250.3 160.8 252.2 162.2 253.8 C 163.59999999999997 255.40000000000003 165.6 256 168 256 L 376 256 Z M 0 0 M 376 160 C 378.3 160 380.2 159.2 381.8 157.8 C 383.40000000000003 156.40000000000003 384 154.4 384 152 L 384 104 C 384 101.7 383.2 99.8 381.8 98.2 C 380.40000000000003 96.60000000000001 378.3 96 376 96 L 168 96 C 165.7 96 163.8 96.8 162.2 98.2 C 160.59999999999997 99.60000000000001 160 101.60000000000001 160 104 L 160 152 C 160 154.3 160.8 156.2 162.2 157.8 C 163.59999999999997 159.40000000000003 165.6 160 168 160 L 376 160 Z M 0 0 M 416 72 L 416 344 C 416 355 412.1 364.4 404.2 372.2 C 396.29999999999995 380 387 384 376 384 L 40 384 C 29 384 19.6 380.1 11.8 372.2 C 4 364.29999999999995 0 355 0 344 L 0 72 C 0 61 3.9 51.6 11.8 43.8 C 19.700000000000003 35.99999999999999 29 32 40 32 L 376 32 C 387 32 396.4 35.9 404.2 43.8 C 412 51.699999999999996 416 61 416 72 Z"/></g></g></g><g transform="matrix(1,0,0,1,48.8125,43.5)"><text fill="#000000" stroke="none" font-family="Open Sans" font-size="12pt" font-style="normal" font-weight="normal" text-decoration="normal" x="28.1875" y="12" text-anchor="middle" dominant-baseline="alphabetic">Change</text></g></g><g id="_155EFB3F-597F-45F6-9C52-C3567F2C7EAC" bpmn2nodeid="_155EFB3F-597F-45F6-9C52-C3567F2C7EAC" transform="matrix(1,0,0,1,911,930.8571166992188)"><g><path fill="none" stroke="none"/></g><g transform="matrix(0.125,0,0,0.125,0,0)"><g transform="matrix(1,0,0,1,0,0)"><path fill="#fef4ea" stroke="none" id="_155EFB3F-597F-45F6-9C52-C3567F2C7EAC?shapeType=BACKGROUND" paint-order="stroke fill markers" d=" M 0 0 M 224.4 4.3 C 216.4 4.3 208.4 7.3 202.3 13.399999999999999 L 13.5 202.2 C 1.3000000000000007 214.39999999999998 1.3000000000000007 234.2 13.5 246.39999999999998 L 202.2 435.09999999999997 C 208.29999999999998 441.2 216.39999999999998 444.2 224.29999999999998 444.2 C 232.2 444.2 240.29999999999998 441.2 246.39999999999998 435.09999999999997 L 435.09999999999997 246.39999999999998 C 447.29999999999995 234.2 447.29999999999995 214.39999999999998 435.09999999999997 202.2 L 246.5 13.4 C 240.4 7.3 232.4 4.3 224.4 4.3 L 224.4 4.3 Z"/></g><g><g transform="matrix(1,0,0,1,0,0)"><g transform="matrix(1,0,0,1,0,0)"><path fill="#ec7a08" stroke="none" id="_155EFB3F-597F-45F6-9C52-C3567F2C7EAC?shapeType=BORDER&amp;renderType=FILL" paint-order="stroke fill markers" d=" M 0 0 M 20.8 212.7 L 213.3 20.2 C 219.60000000000002 13.899999999999999 229.70000000000002 13.899999999999999 235.9 20.2 L 428.4 212.7 C 434.7 219 434.7 229.1 428.4 235.29999999999998 L 235.9 427.8 C 229.6 434.1 219.5 434.1 213.3 427.8 L 20.8 235.3 C 14.5 229.1 14.5 218.9 20.8 212.7 L 20.8 212.7 Z M 0 0 M 0 224 C 0 232.1 3.1 240.3 9.3 246.5 L 201.5 438.7 C 213.9 451.09999999999997 234.1 451.09999999999997 246.5 438.7 L 438.7 246.5 C 444.9 240.3 448 232.1 448 224 C 448 215.9 444.9 207.7 438.7 201.5 L 246.5 9.3 C 234.1 -3.0999999999999996 213.9 -3.0999999999999996 201.5 9.3 L 9.3 201.5 C 3.1 207.7 0 215.9 0 224 L 0 224 Z"/></g></g></g><g><g transform="matrix(1,0,0,1,0,0)"><g transform="matrix(1,0,0,1,0,0)"><path fill="#ec7a08" stroke="none" id="_155EFB3F-597F-45F6-9C52-C3567F2C7EACundefined" paint-order="stroke fill markers" d=" M 0 0 M 298.2 269.2 C 298.2 272.59999999999997 297.09999999999997 275.3 294.7 277.7 L 277.7 294.7 C 275.3 297.09999999999997 272.59999999999997 298.2 269.2 298.2 C 265.8 298.2 263.09999999999997 297.09999999999997 260.7 294.7 L 224 258 L 187.2 294.8 C 184.79999999999998 297.2 182.1 298.3 178.7 298.3 C 175.29999999999998 298.3 172.6 297.2 170.2 294.8 L 153.2 277.8 C 150.79999999999998 275.40000000000003 149.7 272.7 149.7 269.3 C 149.7 265.90000000000003 150.79999999999998 263.2 153.2 260.8 L 190 224 L 153.2 187.2 C 150.79999999999998 184.79999999999998 149.7 182 149.7 178.7 C 149.7 175.29999999999998 150.79999999999998 172.5 153.2 170.2 L 170.2 153.2 C 172.6 150.79999999999998 175.29999999999998 149.7 178.7 149.7 C 182.1 149.7 184.79999999999998 150.79999999999998 187.2 153.2 L 224 190 L 260.8 153.2 C 263.2 150.79999999999998 265.90000000000003 149.7 269.3 149.7 C 272.7 149.7 275.40000000000003 150.79999999999998 277.8 153.2 L 294.8 170.2 C 297.2 172.5 298.3 175.29999999999998 298.3 178.7 C 298.3 182 297.2 184.79999999999998 294.8 187.2 L 258 224 L 294.8 260.8 C 297.1 263.1 298.2 265.9 298.2 269.2 Z"/></g></g></g></g><g transform="matrix(1,0,0,1,28,61)"/></g><g id="_B36952DB-6933-4556-A66D-C28A69C20242" bpmn2nodeid="_B36952DB-6933-4556-A66D-C28A69C20242" transform="matrix(1,0,0,1,850,412)"><g><path fill="none" stroke="none"/></g><g transform="matrix(0.125,0,0,0.125,0,0)"><g transform="matrix(1,0,0,1,0,0)"><path fill="#fef4ea" stroke="none" id="_B36952DB-6933-4556-A66D-C28A69C20242?shapeType=BACKGROUND" paint-order="stroke fill markers" d=" M 0 0 M 224.4 4.3 C 216.4 4.3 208.4 7.3 202.3 13.399999999999999 L 13.5 202.2 C 1.3000000000000007 214.39999999999998 1.3000000000000007 234.2 13.5 246.39999999999998 L 202.2 435.09999999999997 C 208.29999999999998 441.2 216.39999999999998 444.2 224.29999999999998 444.2 C 232.2 444.2 240.29999999999998 441.2 246.39999999999998 435.09999999999997 L 435.09999999999997 246.39999999999998 C 447.29999999999995 234.2 447.29999999999995 214.39999999999998 435.09999999999997 202.2 L 246.5 13.4 C 240.4 7.3 232.4 4.3 224.4 4.3 L 224.4 4.3 Z"/></g><g><g transform="matrix(1,0,0,1,0,0)"><g transform="matrix(1,0,0,1,0,0)"><path fill="rgb(236,122,8)" stroke="none" id="_B36952DB-6933-4556-A66D-C28A69C20242?shapeType=BORDER&amp;renderType=FILL" paint-order="stroke fill markers" d=" M 0 0 M 20.8 212.7 L 213.3 20.2 C 219.60000000000002 13.899999999999999 229.70000000000002 13.899999999999999 235.9 20.2 L 428.4 212.7 C 434.7 219 434.7 229.1 428.4 235.29999999999998 L 235.9 427.8 C 229.6 434.1 219.5 434.1 213.3 427.8 L 20.8 235.3 C 14.5 229.1 14.5 218.9 20.8 212.7 L 20.8 212.7 Z M 0 0 M 0 224 C 0 232.1 3.1 240.3 9.3 246.5 L 201.5 438.7 C 213.9 451.09999999999997 234.1 451.09999999999997 246.5 438.7 L 438.7 246.5 C 444.9 240.3 448 232.1 448 224 C 448 215.9 444.9 207.7 438.7 201.5 L 246.5 9.3 C 234.1 -3.0999999999999996 213.9 -3.0999999999999996 201.5 9.3 L 9.3 201.5 C 3.1 207.7 0 215.9 0 224 L 0 224 Z"/></g></g></g><g><g transform="matrix(1,0,0,1,0,0)"><g transform="matrix(1,0,0,1,0,0)"><path fill="#ec7a08" stroke="none" id="_B36952DB-6933-4556-A66D-C28A69C20242undefined" paint-order="stroke fill markers" d=" M 0 0 M 224 127.9 C 249.6 127.9 273.8 137.9 291.9 156 C 310 174.2 320 198.3 320 223.9 C 320 249.5 310 273.6 291.9 291.8 C 273.79999999999995 309.90000000000003 249.7 319.90000000000003 223.99999999999997 319.90000000000003 C 198.29999999999995 319.90000000000003 174.2 309.90000000000003 156.09999999999997 291.8 C 138 273.7 128 249.6 128 223.9 C 128 198.20000000000002 138 174.10000000000002 156.1 156 C 174.2 137.89999999999998 198.4 127.9 224 127.9 M 224 111.9 C 162.1 111.9 112 162 112 223.9 C 112 285.8 162.1 335.9 224 335.9 C 285.9 335.9 336 285.79999999999995 336 223.89999999999998 C 336 162 285.9 111.9 224 111.9 L 224 111.9 Z"/></g></g></g></g><g transform="matrix(1,0,0,1,28,61)"/></g><g id="_DEDFA4F6-BE8E-4384-8A7D-9F58D14430DB" bpmn2nodeid="_DEDFA4F6-BE8E-4384-8A7D-9F58D14430DB" transform="matrix(1,0,0,1,1001,186)"><g><path fill="none" stroke="none"/></g><g transform="matrix(1,0,0,1,0,0)"><path fill="#ffffff" stroke="none" id="_DEDFA4F6-BE8E-4384-8A7D-9F58D14430DB?shapeType=BACKGROUND" paint-order="stroke fill markers" d=" M 2 0 L 152 0 L 152 0 A 2 2 0 0 1 154 2 L 154 100 L 154 100 A 2 2 0 0 1 152 102 L 2 102 L 2 102 A 2 2 0 0 1 0 100 L 0 2 L 0 2.0000000000000004 A 2 2 0 0 1 1.9999999999999996 0 Z"/></g><g transform="matrix(1,0,0,1,0,0)"><path fill="none" stroke="#000000" id="_DEDFA4F6-BE8E-4384-8A7D-9F58D14430DB?shapeType=BORDER&amp;renderType=STROKE" paint-order="fill stroke markers" d=" M 2 0 L 152 0 L 152 0 A 2 2 0 0 1 154 2 L 154 100 L 154 100 A 2 2 0 0 1 152 102 L 2 102 L 2 102 A 2 2 0 0 1 0 100 L 0 2 L 0 2.0000000000000004 A 2 2 0 0 1 1.9999999999999996 0 Z" stroke-miterlimit="10" stroke-width="1.5" stroke-dasharray=""/></g><g><g transform="matrix(0.06,0,0,0.06,9.4,9.4)"><g transform="matrix(1,0,0,1,0,0)"><path fill="#393f44" stroke="none" id="_DEDFA4F6-BE8E-4384-8A7D-9F58D14430DBundefined" paint-order="stroke fill markers" d=" M 0 0 M 128 344 L 128 296 C 128 293.7 127.2 291.8 125.8 290.2 C 124.39999999999999 288.59999999999997 122.39999999999999 288 120 288 L 40 288 C 37.7 288 35.8 288.8 34.2 290.2 C 32.60000000000001 291.59999999999997 32 293.7 32 296 L 32 344 C 32 346.3 32.8 348.2 34.2 349.8 C 35.60000000000001 351.40000000000003 37.6 352 40 352 L 120 352 C 122.3 352 124.2 351.2 125.8 349.8 C 127.39999999999999 348.40000000000003 128 346.3 128 344 Z M 0 0 M 128 248 L 128 200 C 128 197.7 127.2 195.8 125.8 194.2 C 124.39999999999999 192.59999999999997 122.39999999999999 192 120 192 L 40 192 C 37.7 192 35.8 192.8 34.2 194.2 C 32.60000000000001 195.59999999999997 32 197.7 32 200 L 32 248 C 32 250.3 32.8 252.2 34.2 253.8 C 35.60000000000001 255.40000000000003 37.6 256 40 256 L 120 256 C 122.3 256 124.2 255.2 125.8 253.8 C 127.39999999999999 252.40000000000003 128 250.3 128 248 Z M 0 0 M 376 352 C 378.3 352 380.2 351.2 381.8 349.8 C 383.40000000000003 348.40000000000003 384 346.40000000000003 384 344 L 384 296 C 384 293.7 383.2 291.8 381.8 290.2 C 380.40000000000003 288.59999999999997 378.40000000000003 288 376 288 L 168 288 C 165.7 288 163.8 288.8 162.2 290.2 C 160.59999999999997 291.59999999999997 160 293.59999999999997 160 296 L 160 344 C 160 346.3 160.8 348.2 162.2 349.8 C 163.59999999999997 351.40000000000003 165.6 352 168 352 L 376 352 Z M 0 0 M 128 152 L 128 104 C 128 101.7 127.2 99.8 125.8 98.2 C 124.39999999999999 96.60000000000001 122.3 96 120 96 L 40 96 C 37.7 96 35.8 96.8 34.2 98.2 C 32.60000000000001 99.60000000000001 32 101.7 32 104 L 32 152 C 32 154.3 32.8 156.2 34.2 157.8 C 35.60000000000001 159.40000000000003 37.6 160 40 160 L 120 160 C 122.3 160 124.2 159.2 125.8 157.8 C 127.39999999999999 156.40000000000003 128 154.3 128 152 Z M 0 0 M 376 256 C 378.3 256 380.2 255.2 381.8 253.8 C 383.40000000000003 252.40000000000003 384 250.4 384 248 L 384 200 C 384 197.7 383.2 195.8 381.8 194.2 C 380.40000000000003 192.59999999999997 378.40000000000003 192 376 192 L 168 192 C 165.7 192 163.8 192.8 162.2 194.2 C 160.59999999999997 195.59999999999997 160 197.6 160 200 L 160 248 C 160 250.3 160.8 252.2 162.2 253.8 C 163.59999999999997 255.40000000000003 165.6 256 168 256 L 376 256 Z M 0 0 M 376 160 C 378.3 160 380.2 159.2 381.8 157.8 C 383.40000000000003 156.40000000000003 384 154.4 384 152 L 384 104 C 384 101.7 383.2 99.8 381.8 98.2 C 380.40000000000003 96.60000000000001 378.3 96 376 96 L 168 96 C 165.7 96 163.8 96.8 162.2 98.2 C 160.59999999999997 99.60000000000001 160 101.60000000000001 160 104 L 160 152 C 160 154.3 160.8 156.2 162.2 157.8 C 163.59999999999997 159.40000000000003 165.6 160 168 160 L 376 160 Z M 0 0 M 416 72 L 416 344 C 416 355 412.1 364.4 404.2 372.2 C 396.29999999999995 380 387 384 376 384 L 40 384 C 29 384 19.6 380.1 11.8 372.2 C 4 364.29999999999995 0 355 0 344 L 0 72 C 0 61 3.9 51.6 11.8 43.8 C 19.700000000000003 35.99999999999999 29 32 40 32 L 376 32 C 387 32 396.4 35.9 404.2 43.8 C 412 51.699999999999996 416 61 416 72 Z"/></g></g></g><g transform="matrix(1,0,0,1,35,36)"><text fill="#000000" stroke="none" font-family="Open Sans" font-size="12pt" font-style="normal" font-weight="normal" text-decoration="normal" x="47.88671875" y="12" text-anchor="middle" dominant-baseline="alphabetic">    Validate     </text><text fill="#000000" stroke="none" font-family="Open Sans" font-size="12pt" font-style="normal" font-weight="normal" text-decoration="normal" x="47.88671875" y="27" text-anchor="middle" dominant-baseline="alphabetic">Florida Rules</text></g></g><g id="_D90449F2-F58F-4C6E-8C5D-D7AFE5672FE6" bpmn2nodeid="_D90449F2-F58F-4C6E-8C5D-D7AFE5672FE6" transform="matrix(1,0,0,1,1481,109)"><g><path fill="none" stroke="none"/></g><g transform="matrix(0.125,0,0,0.125,0,0)"><g transform="matrix(1,0,0,1,0,0)"><path fill="#fef4ea" stroke="none" id="_D90449F2-F58F-4C6E-8C5D-D7AFE5672FE6?shapeType=BACKGROUND" paint-order="stroke fill markers" d=" M 0 0 M 224.4 4.3 C 216.4 4.3 208.4 7.3 202.3 13.399999999999999 L 13.5 202.2 C 1.3000000000000007 214.39999999999998 1.3000000000000007 234.2 13.5 246.39999999999998 L 202.2 435.09999999999997 C 208.29999999999998 441.2 216.39999999999998 444.2 224.29999999999998 444.2 C 232.2 444.2 240.29999999999998 441.2 246.39999999999998 435.09999999999997 L 435.09999999999997 246.39999999999998 C 447.29999999999995 234.2 447.29999999999995 214.39999999999998 435.09999999999997 202.2 L 246.5 13.4 C 240.4 7.3 232.4 4.3 224.4 4.3 L 224.4 4.3 Z"/></g><g><g transform="matrix(1,0,0,1,0,0)"><g transform="matrix(1,0,0,1,0,0)"><path fill="#ec7a08" stroke="none" id="_D90449F2-F58F-4C6E-8C5D-D7AFE5672FE6?shapeType=BORDER&amp;renderType=FILL" paint-order="stroke fill markers" d=" M 0 0 M 20.8 212.7 L 213.3 20.2 C 219.60000000000002 13.899999999999999 229.70000000000002 13.899999999999999 235.9 20.2 L 428.4 212.7 C 434.7 219 434.7 229.1 428.4 235.29999999999998 L 235.9 427.8 C 229.6 434.1 219.5 434.1 213.3 427.8 L 20.8 235.3 C 14.5 229.1 14.5 218.9 20.8 212.7 L 20.8 212.7 Z M 0 0 M 0 224 C 0 232.1 3.1 240.3 9.3 246.5 L 201.5 438.7 C 213.9 451.09999999999997 234.1 451.09999999999997 246.5 438.7 L 438.7 246.5 C 444.9 240.3 448 232.1 448 224 C 448 215.9 444.9 207.7 438.7 201.5 L 246.5 9.3 C 234.1 -3.0999999999999996 213.9 -3.0999999999999996 201.5 9.3 L 9.3 201.5 C 3.1 207.7 0 215.9 0 224 L 0 224 Z"/></g></g></g><g><g transform="matrix(1,0,0,1,0,0)"><g transform="matrix(1,0,0,1,0,0)"><path fill="#ec7a08" stroke="none" id="_D90449F2-F58F-4C6E-8C5D-D7AFE5672FE6undefined" paint-order="stroke fill markers" d=" M 0 0 M 298.2 269.2 C 298.2 272.59999999999997 297.09999999999997 275.3 294.7 277.7 L 277.7 294.7 C 275.3 297.09999999999997 272.59999999999997 298.2 269.2 298.2 C 265.8 298.2 263.09999999999997 297.09999999999997 260.7 294.7 L 224 258 L 187.2 294.8 C 184.79999999999998 297.2 182.1 298.3 178.7 298.3 C 175.29999999999998 298.3 172.6 297.2 170.2 294.8 L 153.2 277.8 C 150.79999999999998 275.40000000000003 149.7 272.7 149.7 269.3 C 149.7 265.90000000000003 150.79999999999998 263.2 153.2 260.8 L 190 224 L 153.2 187.2 C 150.79999999999998 184.79999999999998 149.7 182 149.7 178.7 C 149.7 175.29999999999998 150.79999999999998 172.5 153.2 170.2 L 170.2 153.2 C 172.6 150.79999999999998 175.29999999999998 149.7 178.7 149.7 C 182.1 149.7 184.79999999999998 150.79999999999998 187.2 153.2 L 224 190 L 260.8 153.2 C 263.2 150.79999999999998 265.90000000000003 149.7 269.3 149.7 C 272.7 149.7 275.40000000000003 150.79999999999998 277.8 153.2 L 294.8 170.2 C 297.2 172.5 298.3 175.29999999999998 298.3 178.7 C 298.3 182 297.2 184.79999999999998 294.8 187.2 L 258 224 L 294.8 260.8 C 297.1 263.1 298.2 265.9 298.2 269.2 Z"/></g></g></g></g><g transform="matrix(1,0,0,1,28,61)"/></g><g id="_28669A4F-2B22-4E25-AFF2-ACA8AAE7E60A" bpmn2nodeid="_28669A4F-2B22-4E25-AFF2-ACA8AAE7E60A" transform="matrix(1,0,0,1,1391,389)"><g><path fill="none" stroke="none"/></g><g transform="matrix(0.125,0,0,0.125,0,0)"><g transform="matrix(1,0,0,1,0,0)"><path fill="#fef4ea" stroke="none" id="_28669A4F-2B22-4E25-AFF2-ACA8AAE7E60A?shapeType=BACKGROUND" paint-order="stroke fill markers" d=" M 0 0 M 224.4 4.3 C 216.4 4.3 208.4 7.3 202.3 13.399999999999999 L 13.5 202.2 C 1.3000000000000007 214.39999999999998 1.3000000000000007 234.2 13.5 246.39999999999998 L 202.2 435.09999999999997 C 208.29999999999998 441.2 216.39999999999998 444.2 224.29999999999998 444.2 C 232.2 444.2 240.29999999999998 441.2 246.39999999999998 435.09999999999997 L 435.09999999999997 246.39999999999998 C 447.29999999999995 234.2 447.29999999999995 214.39999999999998 435.09999999999997 202.2 L 246.5 13.4 C 240.4 7.3 232.4 4.3 224.4 4.3 L 224.4 4.3 Z"/></g><g><g transform="matrix(1,0,0,1,0,0)"><g transform="matrix(1,0,0,1,0,0)"><path fill="#ec7a08" stroke="none" id="_28669A4F-2B22-4E25-AFF2-ACA8AAE7E60A?shapeType=BORDER&amp;renderType=FILL" paint-order="stroke fill markers" d=" M 0 0 M 20.8 212.7 L 213.3 20.2 C 219.60000000000002 13.899999999999999 229.70000000000002 13.899999999999999 235.9 20.2 L 428.4 212.7 C 434.7 219 434.7 229.1 428.4 235.29999999999998 L 235.9 427.8 C 229.6 434.1 219.5 434.1 213.3 427.8 L 20.8 235.3 C 14.5 229.1 14.5 218.9 20.8 212.7 L 20.8 212.7 Z M 0 0 M 0 224 C 0 232.1 3.1 240.3 9.3 246.5 L 201.5 438.7 C 213.9 451.09999999999997 234.1 451.09999999999997 246.5 438.7 L 438.7 246.5 C 444.9 240.3 448 232.1 448 224 C 448 215.9 444.9 207.7 438.7 201.5 L 246.5 9.3 C 234.1 -3.0999999999999996 213.9 -3.0999999999999996 201.5 9.3 L 9.3 201.5 C 3.1 207.7 0 215.9 0 224 L 0 224 Z"/></g></g></g><g><g transform="matrix(1,0,0,1,0,0)"><g transform="matrix(1,0,0,1,0,0)"><path fill="#ec7a08" stroke="none" id="_28669A4F-2B22-4E25-AFF2-ACA8AAE7E60Aundefined" paint-order="stroke fill markers" d=" M 0 0 M 224 127.9 C 249.6 127.9 273.8 137.9 291.9 156 C 310 174.2 320 198.3 320 223.9 C 320 249.5 310 273.6 291.9 291.8 C 273.79999999999995 309.90000000000003 249.7 319.90000000000003 223.99999999999997 319.90000000000003 C 198.29999999999995 319.90000000000003 174.2 309.90000000000003 156.09999999999997 291.8 C 138 273.7 128 249.6 128 223.9 C 128 198.20000000000002 138 174.10000000000002 156.1 156 C 174.2 137.89999999999998 198.4 127.9 224 127.9 M 224 111.9 C 162.1 111.9 112 162 112 223.9 C 112 285.8 162.1 335.9 224 335.9 C 285.9 335.9 336 285.79999999999995 336 223.89999999999998 C 336 162 285.9 111.9 224 111.9 L 224 111.9 Z"/></g></g></g></g><g transform="matrix(1,0,0,1,28,61)"/></g><g id="_2595F7B9-2828-4DFC-830E-45E7502F8690" bpmn2nodeid="_2595F7B9-2828-4DFC-830E-45E7502F8690" transform="matrix(1,0,0,1,1001,316)"><g><path fill="none" stroke="none"/></g><g transform="matrix(1,0,0,1,0,0)"><path fill="#ffffff" stroke="none" id="_2595F7B9-2828-4DFC-830E-45E7502F8690?shapeType=BACKGROUND" paint-order="stroke fill markers" d=" M 2 0 L 152 0 L 152 0 A 2 2 0 0 1 154 2 L 154 100 L 154 100 A 2 2 0 0 1 152 102 L 2 102 L 2 102 A 2 2 0 0 1 0 100 L 0 2 L 0 2.0000000000000004 A 2 2 0 0 1 1.9999999999999996 0 Z"/></g><g transform="matrix(1,0,0,1,0,0)"><path fill="none" stroke="#000000" id="_2595F7B9-2828-4DFC-830E-45E7502F8690?shapeType=BORDER&amp;renderType=STROKE" paint-order="fill stroke markers" d=" M 2 0 L 152 0 L 152 0 A 2 2 0 0 1 154 2 L 154 100 L 154 100 A 2 2 0 0 1 152 102 L 2 102 L 2 102 A 2 2 0 0 1 0 100 L 0 2 L 0 2.0000000000000004 A 2 2 0 0 1 1.9999999999999996 0 Z" stroke-miterlimit="10" stroke-width="1.5" stroke-dasharray=""/></g><g><g transform="matrix(0.06,0,0,0.06,9.4,9.4)"><g transform="matrix(1,0,0,1,0,0)"><path fill="#393f44" stroke="none" id="_2595F7B9-2828-4DFC-830E-45E7502F8690undefined" paint-order="stroke fill markers" d=" M 0 0 M 128 344 L 128 296 C 128 293.7 127.2 291.8 125.8 290.2 C 124.39999999999999 288.59999999999997 122.39999999999999 288 120 288 L 40 288 C 37.7 288 35.8 288.8 34.2 290.2 C 32.60000000000001 291.59999999999997 32 293.7 32 296 L 32 344 C 32 346.3 32.8 348.2 34.2 349.8 C 35.60000000000001 351.40000000000003 37.6 352 40 352 L 120 352 C 122.3 352 124.2 351.2 125.8 349.8 C 127.39999999999999 348.40000000000003 128 346.3 128 344 Z M 0 0 M 128 248 L 128 200 C 128 197.7 127.2 195.8 125.8 194.2 C 124.39999999999999 192.59999999999997 122.39999999999999 192 120 192 L 40 192 C 37.7 192 35.8 192.8 34.2 194.2 C 32.60000000000001 195.59999999999997 32 197.7 32 200 L 32 248 C 32 250.3 32.8 252.2 34.2 253.8 C 35.60000000000001 255.40000000000003 37.6 256 40 256 L 120 256 C 122.3 256 124.2 255.2 125.8 253.8 C 127.39999999999999 252.40000000000003 128 250.3 128 248 Z M 0 0 M 376 352 C 378.3 352 380.2 351.2 381.8 349.8 C 383.40000000000003 348.40000000000003 384 346.40000000000003 384 344 L 384 296 C 384 293.7 383.2 291.8 381.8 290.2 C 380.40000000000003 288.59999999999997 378.40000000000003 288 376 288 L 168 288 C 165.7 288 163.8 288.8 162.2 290.2 C 160.59999999999997 291.59999999999997 160 293.59999999999997 160 296 L 160 344 C 160 346.3 160.8 348.2 162.2 349.8 C 163.59999999999997 351.40000000000003 165.6 352 168 352 L 376 352 Z M 0 0 M 128 152 L 128 104 C 128 101.7 127.2 99.8 125.8 98.2 C 124.39999999999999 96.60000000000001 122.3 96 120 96 L 40 96 C 37.7 96 35.8 96.8 34.2 98.2 C 32.60000000000001 99.60000000000001 32 101.7 32 104 L 32 152 C 32 154.3 32.8 156.2 34.2 157.8 C 35.60000000000001 159.40000000000003 37.6 160 40 160 L 120 160 C 122.3 160 124.2 159.2 125.8 157.8 C 127.39999999999999 156.40000000000003 128 154.3 128 152 Z M 0 0 M 376 256 C 378.3 256 380.2 255.2 381.8 253.8 C 383.40000000000003 252.40000000000003 384 250.4 384 248 L 384 200 C 384 197.7 383.2 195.8 381.8 194.2 C 380.40000000000003 192.59999999999997 378.40000000000003 192 376 192 L 168 192 C 165.7 192 163.8 192.8 162.2 194.2 C 160.59999999999997 195.59999999999997 160 197.6 160 200 L 160 248 C 160 250.3 160.8 252.2 162.2 253.8 C 163.59999999999997 255.40000000000003 165.6 256 168 256 L 376 256 Z M 0 0 M 376 160 C 378.3 160 380.2 159.2 381.8 157.8 C 383.40000000000003 156.40000000000003 384 154.4 384 152 L 384 104 C 384 101.7 383.2 99.8 381.8 98.2 C 380.40000000000003 96.60000000000001 378.3 96 376 96 L 168 96 C 165.7 96 163.8 96.8 162.2 98.2 C 160.59999999999997 99.60000000000001 160 101.60000000000001 160 104 L 160 152 C 160 154.3 160.8 156.2 162.2 157.8 C 163.59999999999997 159.40000000000003 165.6 160 168 160 L 376 160 Z M 0 0 M 416 72 L 416 344 C 416 355 412.1 364.4 404.2 372.2 C 396.29999999999995 380 387 384 376 384 L 40 384 C 29 384 19.6 380.1 11.8 372.2 C 4 364.29999999999995 0 355 0 344 L 0 72 C 0 61 3.9 51.6 11.8 43.8 C 19.700000000000003 35.99999999999999 29 32 40 32 L 376 32 C 387 32 396.4 35.9 404.2 43.8 C 412 51.699999999999996 416 61 416 72 Z"/></g></g></g><g transform="matrix(1,0,0,1,41.19140625,28.5)"><text fill="#000000" stroke="none" font-family="Open Sans" font-size="12pt" font-style="normal" font-weight="normal" text-decoration="normal" x="35.80859375" y="12" text-anchor="middle" dominant-baseline="alphabetic"> Validate  </text><text fill="#000000" stroke="none" font-family="Open Sans" font-size="12pt" font-style="normal" font-weight="normal" text-decoration="normal" x="35.80859375" y="27" text-anchor="middle" dominant-baseline="alphabetic">Michigan </text><text fill="#000000" stroke="none" font-family="Open Sans" font-size="12pt" font-style="normal" font-weight="normal" text-decoration="normal" x="35.80859375" y="42" text-anchor="middle" dominant-baseline="alphabetic">    Rules    </text></g></g><g id="_D4C4477B-9E9B-4F40-BF00-6B59F118509E" bpmn2nodeid="_D4C4477B-9E9B-4F40-BF00-6B59F118509E" transform="matrix(1,0,0,1,1643,102)"><g><path fill="none" stroke="none"/></g><g transform="matrix(0.125,0,0,0.125,0,0)"><g transform="matrix(1,0,0,1,0,0)"><path fill="#fce7e7" stroke="none" id="_D4C4477B-9E9B-4F40-BF00-6B59F118509E?shapeType=BACKGROUND" paint-order="stroke fill markers" d=" M 0 0 M 444 224 C 444 263.9 434.2 300.8 414.4 334.5 C 394.7 368.2 368 394.9 334.4 414.5 C 300.79999999999995 434.1 263.9 444 224 444 C 184.10000000000002 444 147.2 434.2 113.5 414.4 C 79.8 394.7 53.1 368 33.5 334.4 C 13.899999999999999 300.79999999999995 4 263.9 4 224 C 4 184.10000000000002 13.8 147.2 33.6 113.5 C 53.400000000000006 79.80000000000001 80.1 53.1 113.6 33.5 C 147.1 13.899999999999999 184.1 4 224 4 C 263.9 4 300.8 13.8 334.5 33.6 C 368.2 53.400000000000006 394.9 80.1 414.5 113.6 C 434.1 147.1 444 184.1 444 224 Z"/></g><g><g transform="matrix(1,0,0,1,0,0)"><g transform="matrix(1,0,0,1,0,0)"><path fill="#a30000" stroke="none" id="_D4C4477B-9E9B-4F40-BF00-6B59F118509E?shapeType=BORDER&amp;renderType=FILL" paint-order="stroke fill markers" d=" M 0 0 M 224 0 C 100.3 0 0 100.3 0 224 C 0 347.7 100.3 448 224 448 C 347.7 448 448 347.7 448 224 C 448 100.30000000000001 347.7 0 224 0 Z M 0 0 M 224 400 C 126.8 400 48 321.2 48 224 C 48 126.80000000000001 126.8 48 224 48 C 321.2 48 400 126.8 400 224 C 400 321.2 321.2 400 224 400 Z"/></g></g></g></g><g transform="matrix(1,0,0,1,28,61)"/></g><g id="_C85D7351-B32A-43A1-A897-D021FE599F5F" bpmn2nodeid="_C85D7351-B32A-43A1-A897-D021FE599F5F" transform="matrix(1,0,0,1,124,97)"><g><path fill="none" stroke="none"/></g><g transform="matrix(0.125,0,0,0.125,0,0)"><g transform="matrix(1,0,0,1,0,0)"><path fill="#e8fae6" stroke="none" id="_C85D7351-B32A-43A1-A897-D021FE599F5F?shapeType=BACKGROUND" paint-order="stroke fill markers" d=" M 0 0 M 444 224 C 444 263.9 434.2 300.8 414.4 334.5 C 394.7 368.2 368 394.9 334.4 414.5 C 300.79999999999995 434.1 263.9 444 224 444 C 184.10000000000002 444 147.2 434.2 113.5 414.4 C 79.8 394.7 53.1 368 33.5 334.4 C 13.899999999999999 300.79999999999995 4 263.9 4 224 C 4 184.10000000000002 13.8 147.2 33.6 113.5 C 53.400000000000006 79.80000000000001 80.1 53.1 113.6 33.5 C 147.1 13.899999999999999 184.1 4 224 4 C 263.9 4 300.8 13.8 334.5 33.6 C 368.2 53.400000000000006 394.9 80.1 414.5 113.6 C 434.1 147.1 444 184.1 444 224 Z"/></g><g><g transform="matrix(1,0,0,1,0,0)"><g transform="matrix(1,0,0,1,0,0)"><path fill="#4aa241" stroke="none" id="_C85D7351-B32A-43A1-A897-D021FE599F5F?shapeType=BORDER&amp;renderType=FILL" paint-order="stroke fill markers" d=" M 0 0 M 224 0 C 100.3 0 0 100.3 0 224 C 0 347.7 100.3 448 224 448 C 347.7 448 448 347.7 448 224 C 448 100.30000000000001 347.7 0 224 0 Z M 0 0 M 224 432 C 109.1 432 16 338.9 16 224 C 16 109.10000000000002 109.1 16 224 16 C 338.9 16 432 109.1 432 224 C 432 338.9 338.9 432 224 432 Z"/></g></g></g></g><g transform="matrix(1,0,0,1,28,61)"/></g><g id="_8D6D357A-468F-481E-A93D-6C4DED765757" bpmn2nodeid="_8D6D357A-468F-481E-A93D-6C4DED765757" transform="matrix(1,0,0,1,1001,458)"><g><path fill="none" stroke="none"/></g><g transform="matrix(1,0,0,1,0,0)"><path fill="#ffffff" stroke="none" id="_8D6D357A-468F-481E-A93D-6C4DED765757?shapeType=BACKGROUND" paint-order="stroke fill markers" d=" M 2 0 L 152 0 L 152 0 A 2 2 0 0 1 154 2 L 154 100 L 154 100 A 2 2 0 0 1 152 102 L 2 102 L 2 102 A 2 2 0 0 1 0 100 L 0 2 L 0 2.0000000000000004 A 2 2 0 0 1 1.9999999999999996 0 Z"/></g><g transform="matrix(1,0,0,1,0,0)"><path fill="none" stroke="#000000" id="_8D6D357A-468F-481E-A93D-6C4DED765757?shapeType=BORDER&amp;renderType=STROKE" paint-order="fill stroke markers" d=" M 2 0 L 152 0 L 152 0 A 2 2 0 0 1 154 2 L 154 100 L 154 100 A 2 2 0 0 1 152 102 L 2 102 L 2 102 A 2 2 0 0 1 0 100 L 0 2 L 0 2.0000000000000004 A 2 2 0 0 1 1.9999999999999996 0 Z" stroke-miterlimit="10" stroke-width="1.5" stroke-dasharray=""/></g><g><g transform="matrix(0.06,0,0,0.06,9.4,9.4)"><g transform="matrix(1,0,0,1,0,0)"><path fill="#393f44" stroke="none" id="_8D6D357A-468F-481E-A93D-6C4DED765757undefined" paint-order="stroke fill markers" d=" M 0 0 M 128 344 L 128 296 C 128 293.7 127.2 291.8 125.8 290.2 C 124.39999999999999 288.59999999999997 122.39999999999999 288 120 288 L 40 288 C 37.7 288 35.8 288.8 34.2 290.2 C 32.60000000000001 291.59999999999997 32 293.7 32 296 L 32 344 C 32 346.3 32.8 348.2 34.2 349.8 C 35.60000000000001 351.40000000000003 37.6 352 40 352 L 120 352 C 122.3 352 124.2 351.2 125.8 349.8 C 127.39999999999999 348.40000000000003 128 346.3 128 344 Z M 0 0 M 128 248 L 128 200 C 128 197.7 127.2 195.8 125.8 194.2 C 124.39999999999999 192.59999999999997 122.39999999999999 192 120 192 L 40 192 C 37.7 192 35.8 192.8 34.2 194.2 C 32.60000000000001 195.59999999999997 32 197.7 32 200 L 32 248 C 32 250.3 32.8 252.2 34.2 253.8 C 35.60000000000001 255.40000000000003 37.6 256 40 256 L 120 256 C 122.3 256 124.2 255.2 125.8 253.8 C 127.39999999999999 252.40000000000003 128 250.3 128 248 Z M 0 0 M 376 352 C 378.3 352 380.2 351.2 381.8 349.8 C 383.40000000000003 348.40000000000003 384 346.40000000000003 384 344 L 384 296 C 384 293.7 383.2 291.8 381.8 290.2 C 380.40000000000003 288.59999999999997 378.40000000000003 288 376 288 L 168 288 C 165.7 288 163.8 288.8 162.2 290.2 C 160.59999999999997 291.59999999999997 160 293.59999999999997 160 296 L 160 344 C 160 346.3 160.8 348.2 162.2 349.8 C 163.59999999999997 351.40000000000003 165.6 352 168 352 L 376 352 Z M 0 0 M 128 152 L 128 104 C 128 101.7 127.2 99.8 125.8 98.2 C 124.39999999999999 96.60000000000001 122.3 96 120 96 L 40 96 C 37.7 96 35.8 96.8 34.2 98.2 C 32.60000000000001 99.60000000000001 32 101.7 32 104 L 32 152 C 32 154.3 32.8 156.2 34.2 157.8 C 35.60000000000001 159.40000000000003 37.6 160 40 160 L 120 160 C 122.3 160 124.2 159.2 125.8 157.8 C 127.39999999999999 156.40000000000003 128 154.3 128 152 Z M 0 0 M 376 256 C 378.3 256 380.2 255.2 381.8 253.8 C 383.40000000000003 252.40000000000003 384 250.4 384 248 L 384 200 C 384 197.7 383.2 195.8 381.8 194.2 C 380.40000000000003 192.59999999999997 378.40000000000003 192 376 192 L 168 192 C 165.7 192 163.8 192.8 162.2 194.2 C 160.59999999999997 195.59999999999997 160 197.6 160 200 L 160 248 C 160 250.3 160.8 252.2 162.2 253.8 C 163.59999999999997 255.40000000000003 165.6 256 168 256 L 376 256 Z M 0 0 M 376 160 C 378.3 160 380.2 159.2 381.8 157.8 C 383.40000000000003 156.40000000000003 384 154.4 384 152 L 384 104 C 384 101.7 383.2 99.8 381.8 98.2 C 380.40000000000003 96.60000000000001 378.3 96 376 96 L 168 96 C 165.7 96 163.8 96.8 162.2 98.2 C 160.59999999999997 99.60000000000001 160 101.60000000000001 160 104 L 160 152 C 160 154.3 160.8 156.2 162.2 157.8 C 163.59999999999997 159.40000000000003 165.6 160 168 160 L 376 160 Z M 0 0 M 416 72 L 416 344 C 416 355 412.1 364.4 404.2 372.2 C 396.29999999999995 380 387 384 376 384 L 40 384 C 29 384 19.6 380.1 11.8 372.2 C 4 364.29999999999995 0 355 0 344 L 0 72 C 0 61 3.9 51.6 11.8 43.8 C 19.700000000000003 35.99999999999999 29 32 40 32 L 376 32 C 387 32 396.4 35.9 404.2 43.8 C 412 51.699999999999996 416 61 416 72 Z"/></g></g></g><g transform="matrix(1,0,0,1,35.1484375,28.5)"><text fill="#000000" stroke="none" font-family="Open Sans" font-size="12pt" font-style="normal" font-weight="normal" text-decoration="normal" x="41.8515625" y="12" text-anchor="middle" dominant-baseline="alphabetic">  Primary    </text><text fill="#000000" stroke="none" font-family="Open Sans" font-size="12pt" font-style="normal" font-weight="normal" text-decoration="normal" x="41.8515625" y="27" text-anchor="middle" dominant-baseline="alphabetic">Subscriber </text><text fill="#000000" stroke="none" font-family="Open Sans" font-size="12pt" font-style="normal" font-weight="normal" text-decoration="normal" x="41.8515625" y="42" text-anchor="middle" dominant-baseline="alphabetic">     Rules     </text></g></g><g id="_D2046214-B291-4536-A2C6-DC93901022A3" bpmn2nodeid="_D2046214-B291-4536-A2C6-DC93901022A3" transform="matrix(1,0,0,1,1001,593)"><g><path fill="none" stroke="none"/></g><g transform="matrix(1,0,0,1,0,0)"><path fill="#ffffff" stroke="none" id="_D2046214-B291-4536-A2C6-DC93901022A3?shapeType=BACKGROUND" paint-order="stroke fill markers" d=" M 2 0 L 152 0 L 152 0 A 2 2 0 0 1 154 2 L 154 100 L 154 100 A 2 2 0 0 1 152 102 L 2 102 L 2 102 A 2 2 0 0 1 0 100 L 0 2 L 0 2.0000000000000004 A 2 2 0 0 1 1.9999999999999996 0 Z"/></g><g transform="matrix(1,0,0,1,0,0)"><path fill="none" stroke="#000000" id="_D2046214-B291-4536-A2C6-DC93901022A3?shapeType=BORDER&amp;renderType=STROKE" paint-order="fill stroke markers" d=" M 2 0 L 152 0 L 152 0 A 2 2 0 0 1 154 2 L 154 100 L 154 100 A 2 2 0 0 1 152 102 L 2 102 L 2 102 A 2 2 0 0 1 0 100 L 0 2 L 0 2.0000000000000004 A 2 2 0 0 1 1.9999999999999996 0 Z" stroke-miterlimit="10" stroke-width="1.5" stroke-dasharray=""/></g><g><g transform="matrix(0.06,0,0,0.06,9.4,9.4)"><g transform="matrix(1,0,0,1,0,0)"><path fill="#393f44" stroke="none" id="_D2046214-B291-4536-A2C6-DC93901022A3undefined" paint-order="stroke fill markers" d=" M 0 0 M 128 344 L 128 296 C 128 293.7 127.2 291.8 125.8 290.2 C 124.39999999999999 288.59999999999997 122.39999999999999 288 120 288 L 40 288 C 37.7 288 35.8 288.8 34.2 290.2 C 32.60000000000001 291.59999999999997 32 293.7 32 296 L 32 344 C 32 346.3 32.8 348.2 34.2 349.8 C 35.60000000000001 351.40000000000003 37.6 352 40 352 L 120 352 C 122.3 352 124.2 351.2 125.8 349.8 C 127.39999999999999 348.40000000000003 128 346.3 128 344 Z M 0 0 M 128 248 L 128 200 C 128 197.7 127.2 195.8 125.8 194.2 C 124.39999999999999 192.59999999999997 122.39999999999999 192 120 192 L 40 192 C 37.7 192 35.8 192.8 34.2 194.2 C 32.60000000000001 195.59999999999997 32 197.7 32 200 L 32 248 C 32 250.3 32.8 252.2 34.2 253.8 C 35.60000000000001 255.40000000000003 37.6 256 40 256 L 120 256 C 122.3 256 124.2 255.2 125.8 253.8 C 127.39999999999999 252.40000000000003 128 250.3 128 248 Z M 0 0 M 376 352 C 378.3 352 380.2 351.2 381.8 349.8 C 383.40000000000003 348.40000000000003 384 346.40000000000003 384 344 L 384 296 C 384 293.7 383.2 291.8 381.8 290.2 C 380.40000000000003 288.59999999999997 378.40000000000003 288 376 288 L 168 288 C 165.7 288 163.8 288.8 162.2 290.2 C 160.59999999999997 291.59999999999997 160 293.59999999999997 160 296 L 160 344 C 160 346.3 160.8 348.2 162.2 349.8 C 163.59999999999997 351.40000000000003 165.6 352 168 352 L 376 352 Z M 0 0 M 128 152 L 128 104 C 128 101.7 127.2 99.8 125.8 98.2 C 124.39999999999999 96.60000000000001 122.3 96 120 96 L 40 96 C 37.7 96 35.8 96.8 34.2 98.2 C 32.60000000000001 99.60000000000001 32 101.7 32 104 L 32 152 C 32 154.3 32.8 156.2 34.2 157.8 C 35.60000000000001 159.40000000000003 37.6 160 40 160 L 120 160 C 122.3 160 124.2 159.2 125.8 157.8 C 127.39999999999999 156.40000000000003 128 154.3 128 152 Z M 0 0 M 376 256 C 378.3 256 380.2 255.2 381.8 253.8 C 383.40000000000003 252.40000000000003 384 250.4 384 248 L 384 200 C 384 197.7 383.2 195.8 381.8 194.2 C 380.40000000000003 192.59999999999997 378.40000000000003 192 376 192 L 168 192 C 165.7 192 163.8 192.8 162.2 194.2 C 160.59999999999997 195.59999999999997 160 197.6 160 200 L 160 248 C 160 250.3 160.8 252.2 162.2 253.8 C 163.59999999999997 255.40000000000003 165.6 256 168 256 L 376 256 Z M 0 0 M 376 160 C 378.3 160 380.2 159.2 381.8 157.8 C 383.40000000000003 156.40000000000003 384 154.4 384 152 L 384 104 C 384 101.7 383.2 99.8 381.8 98.2 C 380.40000000000003 96.60000000000001 378.3 96 376 96 L 168 96 C 165.7 96 163.8 96.8 162.2 98.2 C 160.59999999999997 99.60000000000001 160 101.60000000000001 160 104 L 160 152 C 160 154.3 160.8 156.2 162.2 157.8 C 163.59999999999997 159.40000000000003 165.6 160 168 160 L 376 160 Z M 0 0 M 416 72 L 416 344 C 416 355 412.1 364.4 404.2 372.2 C 396.29999999999995 380 387 384 376 384 L 40 384 C 29 384 19.6 380.1 11.8 372.2 C 4 364.29999999999995 0 355 0 344 L 0 72 C 0 61 3.9 51.6 11.8 43.8 C 19.700000000000003 35.99999999999999 29 32 40 32 L 376 32 C 387 32 396.4 35.9 404.2 43.8 C 412 51.699999999999996 416 61 416 72 Z"/></g></g></g><g transform="matrix(1,0,0,1,35,36)"><text fill="#000000" stroke="none" font-family="Open Sans" font-size="12pt" font-style="normal" font-weight="normal" text-decoration="normal" x="43.82421875" y="12" text-anchor="middle" dominant-baseline="alphabetic">Dependent </text><text fill="#000000" stroke="none" font-family="Open Sans" font-size="12pt" font-style="normal" font-weight="normal" text-decoration="normal" x="43.82421875" y="27" text-anchor="middle" dominant-baseline="alphabetic">     Rules      </text></g></g><g id="_8A5B8688-33B3-43B8-A4A7-02BFDC8AB889" bpmn2nodeid="_8A5B8688-33B3-43B8-A4A7-02BFDC8AB889"><g><path fill="none" stroke="#000000" paint-order="fill stroke markers" d=" M 180 125.98591549295774 L 279.0092901124964 129.4721581025527" stroke-miterlimit="10" stroke-dasharray=""/></g><g transform="matrix(1,0,0,1,180,125.98591549295774)"/><g transform="matrix(-0.03518945982982014,0.999380659166909,-0.999380659166909,-0.03518945982982014,294.1759472991491,125.00309670416546)"><path fill="#000000" stroke="#000000" paint-order="fill stroke markers" d=" M 10 15 L 0 15 L 5 0 Z" stroke-miterlimit="10" stroke-dasharray=""/></g><g transform="matrix(1,0,0,1,180.3518945982982,117.9991511548098)"/></g><g id="_02EDA5FD-9B01-49E0-AEEE-D56B28EFC742" bpmn2nodeid="_02EDA5FD-9B01-49E0-AEEE-D56B28EFC742"><g><path fill="none" stroke="#000000" paint-order="fill stroke markers" d=" M 448 130 L 471 130" stroke-miterlimit="10" stroke-dasharray=""/></g><g transform="matrix(1,0,0,1,448,130)"/><g transform="matrix(6.123233995736766e-17,1,-1,6.123233995736766e-17,486,125)"><path fill="#000000" stroke="#000000" paint-order="fill stroke markers" d=" M 10 15 L 0 15 L 5 0 Z" stroke-miterlimit="10" stroke-dasharray=""/></g><g transform="matrix(1,0,0,1,448,120)"/></g><g id="_6DC22BD2-2E59-4E5F-9082-40082B53AC74" bpmn2nodeid="_6DC22BD2-2E59-4E5F-9082-40082B53AC74"><g><path fill="none" stroke="rgb(0,0,0)" paint-order="fill stroke markers" d=" M 514 158 L 514 441 L 596 441" stroke-miterlimit="10" stroke-dasharray=""/></g><g transform="matrix(1,0,0,1,514,158)"/><g transform="matrix(6.123233995736766e-17,1,-1,6.123233995736766e-17,611,436)"><path fill="rgb(0,0,0)" stroke="rgb(0,0,0)" paint-order="fill stroke markers" d=" M 10 15 L 0 15 L 5 0 Z" stroke-miterlimit="10" stroke-dasharray=""/></g><g transform="matrix(1,0,0,1,524,288.5)"><text fill="#000000" stroke="none" font-family="Open Sans" font-size="10pt" font-style="normal" font-weight="normal" text-decoration="normal" x="0" y="8.8" text-anchor="start" dominant-baseline="alphabetic">HIX                                                    </text></g></g><g id="_733E3751-7636-4CB7-8980-AB144C67D92A" bpmn2nodeid="_733E3751-7636-4CB7-8980-AB144C67D92A"><g><path fill="none" stroke="rgb(0,0,0)" paint-order="fill stroke markers" d=" M 765 441 L 812.8571166992188 441 L 835.0054334292336 440.4036995849068" stroke-miterlimit="10" stroke-dasharray=""/></g><g transform="matrix(1,0,0,1,765,441)"/><g transform="matrix(0.02691330566045359,0.9996377713844286,-0.9996377713844286,0.02691330566045359,849.8654334716978,435.0018111430779)"><path fill="rgb(0,0,0)" stroke="rgb(0,0,0)" paint-order="fill stroke markers" d=" M 10 15 L 0 15 L 5 0 Z" stroke-miterlimit="10" stroke-dasharray=""/></g><g transform="matrix(1,0,0,1,765,431)"/></g><g id="_3D4DCC7D-FC92-455C-81CC-8E9321DB5CEE" bpmn2nodeid="_3D4DCC7D-FC92-455C-81CC-8E9321DB5CEE"><g><path fill="none" stroke="#000000" paint-order="fill stroke markers" d=" M 878 412 L 880 237 L 951.4285888671875 237 L 986 237" stroke-miterlimit="10" stroke-dasharray=""/></g><g transform="matrix(1,0,0,1,878,412)"/><g transform="matrix(6.123233995736766e-17,1,-1,6.123233995736766e-17,1001,232)"><path fill="#000000" stroke="#000000" paint-order="fill stroke markers" d=" M 10 15 L 0 15 L 5 0 Z" stroke-miterlimit="10" stroke-dasharray=""/></g><g transform="matrix(1,0,0,1,887.9993470027418,313.3857217485401)"><text fill="#000000" stroke="none" font-family="Open Sans" font-size="10pt" font-style="normal" font-weight="normal" text-decoration="normal" x="0" y="8.8" text-anchor="start" dominant-baseline="alphabetic">Florida                                      </text></g></g><g id="_C9507A49-A471-41EA-B68A-9B242ABDD1D2" bpmn2nodeid="_C9507A49-A471-41EA-B68A-9B242ABDD1D2"><g><path fill="none" stroke="#000000" paint-order="fill stroke markers" d=" M 1155 237 L 1288.5714111328125 237 L 1288.5714111328125 417 L 1376 417" stroke-miterlimit="10" stroke-dasharray=""/></g><g transform="matrix(1,0,0,1,1155,237)"/><g transform="matrix(6.123233995736766e-17,1,-1,6.123233995736766e-17,1391,412)"><path fill="#000000" stroke="#000000" paint-order="fill stroke markers" d=" M 10 15 L 0 15 L 5 0 Z" stroke-miterlimit="10" stroke-dasharray=""/></g><g transform="matrix(1,0,0,1,1155,227)"/></g><g id="_CFD7065D-82AB-41AC-9965-0906F0579AD8" bpmn2nodeid="_CFD7065D-82AB-41AC-9965-0906F0579AD8"><g><path fill="none" stroke="#000000" paint-order="fill stroke markers" d=" M 1447 417 L 1509 417 L 1509 180" stroke-miterlimit="10" stroke-dasharray=""/></g><g transform="matrix(1,0,0,1,1447,417)"/><g transform="matrix(1,0,0,1,1504,165)"><path fill="#000000" stroke="#000000" paint-order="fill stroke markers" d=" M 10 15 L 0 15 L 5 0 Z" stroke-miterlimit="10" stroke-dasharray=""/></g><g transform="matrix(1,0,0,1,1447,407)"/></g><g id="_820A3FFF-C9D0-49F3-80F6-CD9FA6F8A82C" bpmn2nodeid="_820A3FFF-C9D0-49F3-80F6-CD9FA6F8A82C"><g><path fill="none" stroke="#000000" paint-order="fill stroke markers" d=" M 1537 135.53731343283582 L 1628.0204249028338 130.78251511701615" stroke-miterlimit="10" stroke-dasharray=""/></g><g transform="matrix(1,0,0,1,1537,135.53731343283582)"/><g transform="matrix(0.052167674467743154,0.9986383398110787,-0.9986383398110787,0.052167674467743154,1642.7391616276614,125.00680830094461)"><path fill="#000000" stroke="#000000" paint-order="fill stroke markers" d=" M 10 15 L 0 15 L 5 0 Z" stroke-miterlimit="10" stroke-dasharray=""/></g><g transform="matrix(1,0,0,1,1537.5216767446775,122.78227331830713)"/></g><g id="_B99C2006-E735-48D9-A01E-9E92B9A9AC31" bpmn2nodeid="_B99C2006-E735-48D9-A01E-9E92B9A9AC31"><g><path fill="none" stroke="#000000" paint-order="fill stroke markers" d=" M 877.9999967062524 468 L 877.9999389648438 958.8571166992188 L 896 958.8571166992188" stroke-miterlimit="10" stroke-dasharray=""/></g><g transform="matrix(1,0,0,1,877.9999967062524,468)"/><g transform="matrix(6.123233995736766e-17,1,-1,6.123233995736766e-17,911,953.8571166992188)"><path fill="#000000" stroke="#000000" paint-order="fill stroke markers" d=" M 10 15 L 0 15 L 5 0 Z" stroke-miterlimit="10" stroke-dasharray=""/></g><g transform="matrix(1,0,0,1,887.9999560721637,713.428557173271)"/></g><g id="_8BA6CCB0-216B-41A1-9ECA-85331F95493F" bpmn2nodeid="_8BA6CCB0-216B-41A1-9ECA-85331F95493F"><g><path fill="none" stroke="#000000" paint-order="fill stroke markers" d=" M 939 986.8571166992188 L 939 1199 L 1347 1199 L 1347 996" stroke-miterlimit="10" stroke-dasharray=""/></g><g transform="matrix(1,0,0,1,939,986.8571166992188)"/><g transform="matrix(1,0,0,1,1342,981)"><path fill="#000000" stroke="#000000" paint-order="fill stroke markers" d=" M 10 15 L 0 15 L 5 0 Z" stroke-miterlimit="10" stroke-dasharray=""/></g><g transform="matrix(1,0,0,1,949,1092.9285583496094)"/></g><g id="_2C693BAF-B9E9-4F1D-854C-3773CC8581F0" bpmn2nodeid="_2C693BAF-B9E9-4F1D-854C-3773CC8581F0"><g><path fill="none" stroke="#000000" paint-order="fill stroke markers" d=" M 1375 953 L 1419 953 L 1419 460" stroke-miterlimit="10" stroke-dasharray=""/></g><g transform="matrix(1,0,0,1,1375,953)"/><g transform="matrix(1,0,0,1,1414,445)"><path fill="#000000" stroke="#000000" paint-order="fill stroke markers" d=" M 10 15 L 0 15 L 5 0 Z" stroke-miterlimit="10" stroke-dasharray=""/></g><g transform="matrix(1,0,0,1,1375,943)"/></g><g id="_1CD2916D-35E5-4B88-BCB4-209777623A5A" bpmn2nodeid="_1CD2916D-35E5-4B88-BCB4-209777623A5A"><g><path fill="none" stroke="#000000" paint-order="fill stroke markers" d=" M 939 986.8571166992188 L 939 1108 L 1071 1108" stroke-miterlimit="10" stroke-dasharray=""/></g><g transform="matrix(1,0,0,1,939,986.8571166992188)"/><g transform="matrix(6.123233995736766e-17,1,-1,6.123233995736766e-17,1086,1103)"><path fill="#000000" stroke="#000000" paint-order="fill stroke markers" d=" M 10 15 L 0 15 L 5 0 Z" stroke-miterlimit="10" stroke-dasharray=""/></g><g transform="matrix(1,0,0,1,949,1036.4285583496094)"><text fill="#000000" stroke="none" font-family="Open Sans" font-size="10pt" font-style="normal" font-weight="normal" text-decoration="normal" x="0" y="8.8" text-anchor="start" dominant-baseline="alphabetic">Reinstatement         </text></g></g><g id="_E9688F00-3319-4FBD-9659-18301E4BE52A" bpmn2nodeid="_E9688F00-3319-4FBD-9659-18301E4BE52A"><g><path fill="none" stroke="#000000" paint-order="fill stroke markers" d=" M 1240 1108 L 1347 1108 L 1347 996" stroke-miterlimit="10" stroke-dasharray=""/></g><g transform="matrix(1,0,0,1,1240,1108)"/><g transform="matrix(1,0,0,1,1342,981)"><path fill="#000000" stroke="#000000" paint-order="fill stroke markers" d=" M 10 15 L 0 15 L 5 0 Z" stroke-miterlimit="10" stroke-dasharray=""/></g><g transform="matrix(1,0,0,1,1240,1098)"/></g><g id="_E83AB6E7-6366-4AEB-821F-E2CBA3663A13" bpmn2nodeid="_E83AB6E7-6366-4AEB-821F-E2CBA3663A13"><g><path fill="none" stroke="#000000" paint-order="fill stroke markers" d=" M 967 958.9478207542783 L 1071.0000787037072 959.2847217851688" stroke-miterlimit="10" stroke-dasharray=""/></g><g transform="matrix(1,0,0,1,967,958.9478207542783)"/><g transform="matrix(-0.00323941354082902,0.9999947530861907,-0.9999947530861907,-0.00323941354082902,1086.016197067704,954.3333392228503)"><path fill="#000000" stroke="#000000" paint-order="fill stroke markers" d=" M 10 15 L 0 15 L 5 0 Z" stroke-miterlimit="10" stroke-dasharray=""/></g><g transform="matrix(1,0,0,1,967.0323941354083,938.1406193404179)"><text fill="#000000" stroke="none" font-family="Open Sans" font-size="10pt" font-style="normal" font-weight="normal" text-decoration="normal" x="0" y="8.8" text-anchor="start" dominant-baseline="alphabetic">Change                     </text></g></g><g id="_527C1385-54F7-42FA-BDF0-3F8174EFBFD9" bpmn2nodeid="_527C1385-54F7-42FA-BDF0-3F8174EFBFD9"><g><path fill="none" stroke="#000000" paint-order="fill stroke markers" d=" M 1240 956.2072546543219 L 1304.012346319669 953.6084711648558" stroke-miterlimit="10" stroke-dasharray=""/></g><g transform="matrix(1,0,0,1,1240,956.2072546543219)"/><g transform="matrix(0.04056474432372086,0.9991769120220658,-0.9991769120220658,0.04056474432372086,1318.7971762783814,948.0041154398897)"><path fill="#000000" stroke="#000000" paint-order="fill stroke markers" d=" M 10 15 L 0 15 L 5 0 Z" stroke-miterlimit="10" stroke-dasharray=""/></g><g transform="matrix(1,0,0,1,1240.4056474432373,944.6118582069403)"/></g><g id="_ABBF3A69-CE96-4168-B454-F47833D62839" bpmn2nodeid="_ABBF3A69-CE96-4168-B454-F47833D62839"><g><path fill="none" stroke="#000000" paint-order="fill stroke markers" d=" M 939 930.8571166992188 L 939 817.1428833007812 L 1071 817.1428833007812" stroke-miterlimit="10" stroke-dasharray=""/></g><g transform="matrix(1,0,0,1,939,930.8571166992188)"/><g transform="matrix(6.123233995736766e-17,1,-1,6.123233995736766e-17,1086,812.1428833007812)"><path fill="#000000" stroke="#000000" paint-order="fill stroke markers" d=" M 10 15 L 0 15 L 5 0 Z" stroke-miterlimit="10" stroke-dasharray=""/></g><g transform="matrix(1,0,0,1,949,863)"><text fill="#000000" stroke="none" font-family="Open Sans" font-size="10pt" font-style="normal" font-weight="normal" text-decoration="normal" x="0" y="8.8" text-anchor="start" dominant-baseline="alphabetic">Add                          </text></g></g><g id="_AFF3776F-130C-4468-B203-D6B3462374EC" bpmn2nodeid="_AFF3776F-130C-4468-B203-D6B3462374EC"><g><path fill="none" stroke="#000000" paint-order="fill stroke markers" d=" M 1240 817.1428833007812 L 1347 817.1428833007812 L 1347 910" stroke-miterlimit="10" stroke-dasharray=""/></g><g transform="matrix(1,0,0,1,1240,817.1428833007812)"/><g transform="matrix(-1,1.2246467991473532e-16,-1.2246467991473532e-16,-1,1352,925)"><path fill="#000000" stroke="#000000" paint-order="fill stroke markers" d=" M 10 15 L 0 15 L 5 0 Z" stroke-miterlimit="10" stroke-dasharray=""/></g><g transform="matrix(1,0,0,1,1240,807.1428833007812)"/></g><g id="_48592F92-5595-4E7F-ADFC-2C709E58EB2B" bpmn2nodeid="_48592F92-5595-4E7F-ADFC-2C709E58EB2B"><g><path fill="none" stroke="#000000" paint-order="fill stroke markers" d=" M 878 468 L 878 732.8571166992188 L 1419 732.8571166992188 L 1419 460" stroke-miterlimit="10" stroke-dasharray=""/></g><g transform="matrix(1,0,0,1,878,468)"/><g transform="matrix(1,0,0,1,1414,445)"><path fill="#000000" stroke="#000000" paint-order="fill stroke markers" d=" M 10 15 L 0 15 L 5 0 Z" stroke-miterlimit="10" stroke-dasharray=""/></g><g transform="matrix(1,0,0,1,888,600.4285583496094)"/></g><g id="_3BC79674-BF4E-48DF-B398-CE2E8BD0EAC3" bpmn2nodeid="_3BC79674-BF4E-48DF-B398-CE2E8BD0EAC3"><g><path fill="none" stroke="#000000" paint-order="fill stroke markers" d=" M 906 440 L 960 440 L 960 367 L 986 367" stroke-miterlimit="10" stroke-dasharray=""/></g><g transform="matrix(1,0,0,1,906,440)"/><g transform="matrix(6.123233995736766e-17,1,-1,6.123233995736766e-17,1001,362)"><path fill="#000000" stroke="#000000" paint-order="fill stroke markers" d=" M 10 15 L 0 15 L 5 0 Z" stroke-miterlimit="10" stroke-dasharray=""/></g><g transform="matrix(1,0,0,1,906,419)"><text fill="#000000" stroke="none" font-family="Open Sans" font-size="10pt" font-style="normal" font-weight="normal" text-decoration="normal" x="0" y="8.8" text-anchor="start" dominant-baseline="alphabetic">Michigan</text></g></g><g id="_2BA794C5-9988-4C76-A7B4-433E3F0B81E2" bpmn2nodeid="_2BA794C5-9988-4C76-A7B4-433E3F0B81E2"><g><path fill="none" stroke="#000000" paint-order="fill stroke markers" d=" M 1155 367 L 1290 366.44317626953125 L 1290 417 L 1376 417" stroke-miterlimit="10" stroke-dasharray=""/></g><g transform="matrix(1,0,0,1,1155,367)"/><g transform="matrix(6.123233995736766e-17,1,-1,6.123233995736766e-17,1391,412)"><path fill="#000000" stroke="#000000" paint-order="fill stroke markers" d=" M 10 15 L 0 15 L 5 0 Z" stroke-miterlimit="10" stroke-dasharray=""/></g><g transform="matrix(1,0,0,1,1155.041245851411,356.72167319614033)"/></g><g id="_31976263-FDE5-4222-9A50-19F619F0AC3E" bpmn2nodeid="_31976263-FDE5-4222-9A50-19F619F0AC3E"><g><path fill="none" stroke="rgb(0,136,206)" paint-order="fill stroke markers" d=" M 878 468 L 878 509 L 986 509" stroke-miterlimit="10" stroke-dasharray=""/></g><g transform="matrix(1,0,0,1,878,468)"/><g transform="matrix(6.123233995736766e-17,1,-1,6.123233995736766e-17,1001,504)"><path fill="rgb(0,0,0)" stroke="rgb(0,136,206)" paint-order="fill stroke markers" d=" M 10 15 L 0 15 L 5 0 Z" stroke-miterlimit="10" stroke-dasharray=""/></g><g transform="matrix(1,0,0,1,888,477.5)"><text fill="#000000" stroke="none" font-family="Open Sans" font-size="10pt" font-style="normal" font-weight="normal" text-decoration="normal" x="0" y="8.8" text-anchor="start" dominant-baseline="alphabetic">Primary</text></g></g><g id="_271ECB1B-A4B0-4AB6-9F0C-D7A1B21689A0" bpmn2nodeid="_271ECB1B-A4B0-4AB6-9F0C-D7A1B21689A0"><g><path fill="none" stroke="#000000" paint-order="fill stroke markers" d=" M 1155 509 L 1291.4285888671875 509 L 1291.4285888671875 417 L 1376 417" stroke-miterlimit="10" stroke-dasharray=""/></g><g transform="matrix(1,0,0,1,1155,509)"/><g transform="matrix(6.123233995736766e-17,1,-1,6.123233995736766e-17,1391,412)"><path fill="#000000" stroke="#000000" paint-order="fill stroke markers" d=" M 10 15 L 0 15 L 5 0 Z" stroke-miterlimit="10" stroke-dasharray=""/></g><g transform="matrix(1,0,0,1,1155,499)"/></g><g id="_C9A4C266-E6D8-457E-A194-E2EF49412FEA" bpmn2nodeid="_C9A4C266-E6D8-457E-A194-E2EF49412FEA"><g><path fill="none" stroke="#000000" paint-order="fill stroke markers" d=" M 878 468 L 878 644 L 986 644" stroke-miterlimit="10" stroke-dasharray=""/></g><g transform="matrix(1,0,0,1,878,468)"/><g transform="matrix(6.123233995736766e-17,1,-1,6.123233995736766e-17,1001,639)"><path fill="#000000" stroke="#000000" paint-order="fill stroke markers" d=" M 10 15 L 0 15 L 5 0 Z" stroke-miterlimit="10" stroke-dasharray=""/></g><g transform="matrix(1,0,0,1,888,545)"><text fill="#000000" stroke="none" font-family="Open Sans" font-size="10pt" font-style="normal" font-weight="normal" text-decoration="normal" x="0" y="8.8" text-anchor="start" dominant-baseline="alphabetic">Dependent                               </text></g></g><g id="_F161BCB5-C36E-4C30-ACBC-F0AF14B188F6" bpmn2nodeid="_F161BCB5-C36E-4C30-ACBC-F0AF14B188F6"><g><path fill="none" stroke="#000000" paint-order="fill stroke markers" d=" M 1155 644 L 1222.857177734375 644 L 1290 644 L 1290 417 L 1376 417" stroke-miterlimit="10" stroke-dasharray=""/></g><g transform="matrix(1,0,0,1,1155,644)"/><g transform="matrix(6.123233995736766e-17,1,-1,6.123233995736766e-17,1391,412)"><path fill="#000000" stroke="#000000" paint-order="fill stroke markers" d=" M 10 15 L 0 15 L 5 0 Z" stroke-miterlimit="10" stroke-dasharray=""/></g><g transform="matrix(1,0,0,1,1155,634)"/></g><g id="_52BF007E-76B8-4F2F-9E38-736C8712D5DD" bpmn2nodeid="_52BF007E-76B8-4F2F-9E38-736C8712D5DD"><g><path fill="none" stroke="rgb(0,0,0)" paint-order="fill stroke markers" d=" M 542 130 L 604 130" stroke-miterlimit="10" stroke-dasharray=""/></g><g transform="matrix(1,0,0,1,542,130)"/><g transform="matrix(6.123233995736766e-17,1,-1,6.123233995736766e-17,619,125)"><path fill="rgb(0,0,0)" stroke="rgb(0,0,0)" paint-order="fill stroke markers" d=" M 10 15 L 0 15 L 5 0 Z" stroke-miterlimit="10" stroke-dasharray=""/></g><g transform="matrix(1,0,0,1,542,109)"><text fill="#000000" stroke="none" font-family="Open Sans" font-size="10pt" font-style="normal" font-weight="normal" text-decoration="normal" x="0" y="8.8" text-anchor="start" dominant-baseline="alphabetic">Medicare      </text></g></g><g id="_833ECC9A-671F-4550-9053-89CCB5C026F1" bpmn2nodeid="_833ECC9A-671F-4550-9053-89CCB5C026F1"><g><path fill="none" stroke="#000000" paint-order="fill stroke markers" d=" M 773 130.68662420382165 L 1466.0005963375143 136.8662473558759" stroke-miterlimit="10" stroke-dasharray=""/></g><g transform="matrix(1,0,0,1,773,130.68662420382165)"/><g transform="matrix(-0.008916842941605668,0.9999602441657142,-0.9999602441657142,-0.008916842941605668,1481.044584214708,132.00019877917143)"><path fill="#000000" stroke="#000000" paint-order="fill stroke markers" d=" M 10 15 L 0 15 L 5 0 Z" stroke-miterlimit="10" stroke-dasharray=""/></g><g transform="matrix(1,0,0,1,1027.0931440128447,123.8437096602537)"/></g><g id="_E2B878C1-CD93-48A9-B0FC-000A24B070F9" bpmn2nodeid="_E2B878C1-CD93-48A9-B0FC-000A24B070F9"><g><path fill="none" stroke="#000000" paint-order="fill stroke markers" d=" M 514 102 L 514 41 L 1166.25 41 L 1509 41 L 1509 94" stroke-miterlimit="10" stroke-dasharray=""/></g><g transform="matrix(1,0,0,1,514,102)"/><g transform="matrix(-1,1.2246467991473532e-16,-1.2246467991473532e-16,-1,1514,109)"><path fill="#000000" stroke="#000000" paint-order="fill stroke markers" d=" M 10 15 L 0 15 L 5 0 Z" stroke-miterlimit="10" stroke-dasharray=""/></g><g transform="matrix(1,0,0,1,524,71.5)"/></g><g transform="matrix(1,0,0,1,619,79)"/><g transform="matrix(1,0,0,1,1086,766.1428833007812)"/><g transform="matrix(1,0,0,1,611,390)"/><g transform="matrix(1,0,0,1,486,102)"/><g transform="matrix(1,0,0,1,294,79)"/><g transform="matrix(1,0,0,1,1319,925)"/><g transform="matrix(1,0,0,1,1086,1057)"/><g transform="matrix(1,0,0,1,1086,908.3333129882812)"/><g transform="matrix(1,0,0,1,911,930.8571166992188)"/><g transform="matrix(1,0,0,1,850,412)"/><g transform="matrix(1,0,0,1,1001,186)"/><g transform="matrix(1,0,0,1,1481,109)"/><g transform="matrix(1,0,0,1,1391,389)"/><g transform="matrix(1,0,0,1,1001,316)"/><g transform="matrix(1,0,0,1,1643,102)"/><g transform="matrix(1,0,0,1,124,97)"/><g transform="matrix(1,0,0,1,1001,458)"/><g transform="matrix(1,0,0,1,1001,593)"/></g></g></svg>